<svg width="393" height="355" viewBox="0 0 393 355" fill="none" xmlns="http://www.w3.org/2000/svg">
<g filter="url(#filter0_d_102_87)">
<rect x="-2" y="174.991" width="153" height="161.271" rx="76.5" transform="rotate(-23.4927 -2 174.991)" fill="#761E6C"/>
</g>
<g filter="url(#filter1_d_102_87)">
<rect x="62" y="88.3277" width="220" height="231.892" rx="104" transform="rotate(-23.4927 62 88.3277)" fill="#64205C"/>
</g>
<g filter="url(#filter2_d_102_87)">
<rect x="140" y="287.507" width="197" height="207.649" rx="98.5" transform="rotate(-71.2153 140 287.507)" fill="#852F7B"/>
</g>
<ellipse cx="192" cy="213.5" rx="109" ry="19.5" fill="white" fill-opacity="0.69"/>
<path d="M300.5 213.5C300.5 214.643 299.854 215.831 298.456 217.054C297.061 218.273 294.974 219.473 292.239 220.63C286.774 222.941 278.835 225.035 268.987 226.796C249.298 230.319 222.079 232.5 192 232.5C161.921 232.5 134.702 230.319 115.013 226.796C105.165 225.035 97.226 222.941 91.7605 220.63C89.0258 219.473 86.9388 218.273 85.5436 217.054C84.1457 215.831 83.5 214.643 83.5 213.5C83.5 212.357 84.1457 211.169 85.5436 209.946C86.9388 208.727 89.0258 207.527 91.7605 206.37C97.226 204.059 105.165 201.965 115.013 200.204C134.702 196.681 161.921 194.5 192 194.5C222.079 194.5 249.298 196.681 268.987 200.204C278.835 201.965 286.774 204.059 292.239 206.37C294.974 207.527 297.061 208.727 298.456 209.946C299.854 211.169 300.5 212.357 300.5 213.5Z" stroke="black" stroke-opacity="0.66"/>
<g filter="url(#filter3_ii_102_87)">
<path d="M261.251 173.546L245.485 143.557C244.128 140.983 241.461 139.393 238.561 139.393H206.559C206.373 139.393 206.195 139.467 206.063 139.598C205.931 139.73 205.858 139.908 205.858 140.095V185.883L262 177.242C262 175.979 261.766 174.716 261.251 173.546Z" fill="url(#paint0_linear_102_87)"/>
</g>
<path d="M261.251 173.546L245.485 143.557C244.128 140.983 241.461 139.393 238.561 139.393H206.559C206.373 139.393 206.195 139.467 206.063 139.598C205.931 139.73 205.858 139.908 205.858 140.095V185.883L262 177.242C262 175.979 261.766 174.716 261.251 173.546Z" fill="url(#paint1_linear_102_87)"/>
<path d="M261.251 173.546L245.485 143.557C244.128 140.983 241.461 139.393 238.561 139.393H206.559C206.373 139.393 206.195 139.467 206.063 139.598C205.931 139.73 205.858 139.908 205.858 140.095V185.883L262 177.242C262 175.979 261.766 174.716 261.251 173.546Z" fill="url(#paint2_linear_102_87)"/>
<g filter="url(#filter4_ii_102_87)">
<path d="M145.037 116H191.822C199.588 116 205.858 122.269 205.858 130.036V182.674H131.001V130.04C131.001 122.274 137.27 116.005 145.037 116.005" fill="url(#paint3_linear_102_87)"/>
</g>
<path d="M145.037 116H191.822C199.588 116 205.858 122.269 205.858 130.036V182.674H131.001V130.04C131.001 122.274 137.27 116.005 145.037 116.005" fill="url(#paint4_linear_102_87)"/>
<path d="M145.037 116H191.822C199.588 116 205.858 122.269 205.858 130.036V182.674H131.001V130.04C131.001 122.274 137.27 116.005 145.037 116.005" fill="url(#paint5_linear_102_87)"/>
<path d="M260.55 172.143H229.718C226.864 172.143 224.572 169.85 224.572 166.996V149.265C224.572 146.411 226.864 144.118 229.718 144.118H245.719L260.55 172.143Z" fill="url(#paint6_linear_102_87)"/>
<path d="M260.55 172.143H229.718C226.864 172.143 224.572 169.85 224.572 166.996V149.265C224.572 146.411 226.864 144.118 229.718 144.118H245.719L260.55 172.143Z" fill="url(#paint7_linear_102_87)"/>
<path d="M260.55 172.143H229.718C226.864 172.143 224.572 169.85 224.572 166.996V149.265C224.572 146.411 226.864 144.118 229.718 144.118H245.719L260.55 172.143Z" fill="url(#paint8_linear_102_87)"/>
<path d="M205.858 209.595V176.798H131.001V201.173C131.001 205.805 134.791 209.595 139.422 209.595H205.858Z" fill="url(#paint9_linear_102_87)"/>
<path d="M205.858 209.595V176.798H131.001V201.173C131.001 205.805 134.791 209.595 139.422 209.595H205.858Z" fill="url(#paint10_linear_102_87)"/>
<path d="M205.858 209.595V176.798H131.001V201.173C131.001 205.805 134.791 209.595 139.422 209.595H205.858Z" fill="url(#paint11_linear_102_87)"/>
<g filter="url(#filter5_ii_102_87)">
<path d="M161.41 214.249C159.549 214.249 157.764 213.51 156.448 212.194C155.132 210.877 154.393 209.092 154.393 207.231C154.393 205.37 155.132 203.585 156.448 202.269C157.764 200.953 159.549 200.213 161.41 200.213C163.272 200.213 165.057 200.953 166.373 202.269C167.689 203.585 168.428 205.37 168.428 207.231C168.428 209.092 167.689 210.877 166.373 212.194C165.057 213.51 163.272 214.249 161.41 214.249Z" fill="#D9C3F0"/>
</g>
<path d="M131 186.178H133.339C137.316 186.178 140.544 189.5 140.357 193.523C140.17 197.313 136.895 200.213 133.105 200.213H131V186.178Z" fill="url(#paint12_linear_102_87)"/>
<path d="M205.858 176.821H262V201.29C262 205.875 258.257 209.618 253.672 209.618H205.858V176.821Z" fill="url(#paint13_linear_102_87)"/>
<path d="M205.858 176.821H262V201.29C262 205.875 258.257 209.618 253.672 209.618H205.858V176.821Z" fill="url(#paint14_linear_102_87)"/>
<path d="M205.858 176.821H262V201.29C262 205.875 258.257 209.618 253.672 209.618H205.858V176.821Z" fill="url(#paint15_linear_102_87)"/>
<path d="M205.858 176.821H262V201.29C262 205.875 258.257 209.618 253.672 209.618H205.858V176.821Z" fill="url(#paint16_linear_102_87)"/>
<path fill-rule="evenodd" clip-rule="evenodd" d="M212.497 209.617C212.394 208.837 212.342 208.042 212.342 207.231C212.344 204.728 212.859 202.251 213.856 199.954C214.854 197.658 216.311 195.59 218.139 193.879C219.967 192.168 222.126 190.85 224.484 190.007C226.841 189.164 229.346 188.813 231.845 188.977C234.343 189.14 236.781 189.814 239.009 190.958C241.236 192.101 243.206 193.689 244.795 195.623C246.384 197.558 247.56 199.798 248.249 202.205C248.938 204.612 249.127 207.135 248.802 209.617H212.497Z" fill="url(#paint17_linear_102_87)"/>
<path fill-rule="evenodd" clip-rule="evenodd" d="M143.258 209.617C143.155 208.837 143.104 208.042 143.104 207.231C143.106 204.728 143.621 202.251 144.618 199.954C145.615 197.658 147.073 195.59 148.9 193.879C150.728 192.168 152.888 190.85 155.245 190.007C157.603 189.164 160.108 188.813 162.606 188.977C165.105 189.14 167.543 189.814 169.77 190.958C171.998 192.101 173.967 193.689 175.556 195.623C177.146 197.558 178.321 199.798 179.011 202.205C179.7 204.612 179.888 207.135 179.564 209.617H143.258Z" fill="url(#paint18_linear_102_87)"/>
<g filter="url(#filter6_ii_102_87)">
<path d="M161.277 223.47C156.97 223.47 152.839 221.759 149.794 218.713C146.748 215.668 145.038 211.538 145.038 207.231C145.038 202.924 146.748 198.793 149.794 195.748C152.839 192.702 156.97 190.991 161.277 190.991C165.584 190.991 169.714 192.702 172.76 195.748C175.805 198.793 177.516 202.924 177.516 207.231C177.516 211.538 175.805 215.668 172.76 218.713C169.714 221.759 165.584 223.47 161.277 223.47Z" fill="url(#paint19_linear_102_87)"/>
<path d="M161.277 223.47C156.97 223.47 152.839 221.759 149.794 218.713C146.748 215.668 145.038 211.538 145.038 207.231C145.038 202.924 146.748 198.793 149.794 195.748C152.839 192.702 156.97 190.991 161.277 190.991C165.584 190.991 169.714 192.702 172.76 195.748C175.805 198.793 177.516 202.924 177.516 207.231C177.516 211.538 175.805 215.668 172.76 218.713C169.714 221.759 165.584 223.47 161.277 223.47Z" fill="url(#paint20_radial_102_87)"/>
</g>
<g filter="url(#filter7_ii_102_87)">
<path d="M161.262 213.225C159.672 213.225 158.148 212.593 157.024 211.469C155.9 210.345 155.269 208.821 155.269 207.232C155.269 205.642 155.9 204.118 157.024 202.994C158.148 201.87 159.672 201.238 161.262 201.238C162.851 201.238 164.376 201.87 165.5 202.994C166.624 204.118 167.255 205.642 167.255 207.232C167.255 208.821 166.624 210.345 165.5 211.469C164.376 212.593 162.851 213.225 161.262 213.225Z" fill="#D9C3F0"/>
</g>
<path d="M257.743 200.214H262V181.5H257.743C254.935 181.5 252.643 183.792 252.643 186.599V195.114C252.643 197.921 254.935 200.214 257.743 200.214Z" fill="#F8DA4B"/>
<g filter="url(#filter8_ii_102_87)">
<path d="M230.649 223.47C226.342 223.47 222.212 221.759 219.166 218.713C216.121 215.668 214.41 211.538 214.41 207.231C214.41 202.924 216.121 198.793 219.166 195.748C222.212 192.702 226.342 190.991 230.649 190.991C234.956 190.991 239.087 192.702 242.132 195.748C245.177 198.793 246.888 202.924 246.888 207.231C246.888 211.538 245.177 215.668 242.132 218.713C239.087 221.759 234.956 223.47 230.649 223.47Z" fill="url(#paint21_linear_102_87)"/>
<path d="M230.649 223.47C226.342 223.47 222.212 221.759 219.166 218.713C216.121 215.668 214.41 211.538 214.41 207.231C214.41 202.924 216.121 198.793 219.166 195.748C222.212 192.702 226.342 190.991 230.649 190.991C234.956 190.991 239.087 192.702 242.132 195.748C245.177 198.793 246.888 202.924 246.888 207.231C246.888 211.538 245.177 215.668 242.132 218.713C239.087 221.759 234.956 223.47 230.649 223.47Z" fill="url(#paint22_radial_102_87)"/>
</g>
<g filter="url(#filter9_ii_102_87)">
<path d="M230.64 213.225C229.05 213.225 227.526 212.593 226.402 211.469C225.278 210.345 224.646 208.821 224.646 207.232C224.646 205.642 225.278 204.118 226.402 202.994C227.526 201.87 229.05 201.238 230.64 201.238C232.229 201.238 233.754 201.87 234.878 202.994C236.001 204.118 236.633 205.642 236.633 207.232C236.633 208.821 236.001 210.345 234.878 211.469C233.754 212.593 232.229 213.225 230.64 213.225Z" fill="#D9C3F0"/>
</g>
<g filter="url(#filter10_f_102_87)">
<path d="M229.915 216.85C223.721 216.85 218.7 211.829 218.7 205.636C218.7 199.442 223.721 194.421 229.915 194.421C236.108 194.421 241.129 199.442 241.129 205.636C241.129 211.829 236.108 216.85 229.915 216.85Z" stroke="url(#paint23_linear_102_87)" stroke-width="0.85"/>
</g>
<g filter="url(#filter11_f_102_87)">
<path d="M160.34 216.85C154.146 216.85 149.125 211.829 149.125 205.636C149.125 199.442 154.146 194.421 160.34 194.421C166.533 194.421 171.554 199.442 171.554 205.636C171.554 211.829 166.533 216.85 160.34 216.85Z" stroke="url(#paint24_linear_102_87)" stroke-width="0.85"/>
</g>
<g clip-path="url(#clip0_102_87)">
<path d="M145.643 147.319L132.648 154.128C132.364 154.297 132.283 154.547 132.288 154.91L132.316 155.362L146.13 162.331L159.818 155.292C159.818 155.292 159.833 155.222 159.831 154.977C159.831 154.977 159.817 154.655 159.743 154.505C159.662 154.336 159.491 154.184 159.38 154.093C159.086 153.852 158.792 153.639 158.293 153.362C151.134 149.377 146.43 147.331 146.43 147.331C146.127 147.22 145.877 147.182 145.643 147.319Z" fill="#DEA66C"/>
<path d="M132.595 170.236C133.358 170.733 134.75 171.384 136.157 172.135C139.429 173.878 143.563 175.996 145.619 176.824C145.897 176.938 146.062 176.991 146.255 177C146.397 177.007 146.632 176.91 146.632 176.91C146.632 176.91 146.158 163.116 146.13 162.328C146.102 161.558 145.778 161.306 145.492 161.122C145.045 160.84 144.077 160.402 144.077 160.402C144.077 160.402 140.686 158.744 137.299 156.997C135.689 156.165 134.328 155.311 132.866 154.611C132.597 154.485 132.284 154.647 132.286 154.947L132.385 169.897C132.386 170.04 132.474 170.159 132.595 170.236Z" fill="#B38251"/>
<path d="M159.554 170.144L146.659 176.903C146.452 177.011 146.204 176.863 146.202 176.628L146.13 162.333C146.129 162.196 146.084 161.894 146.041 161.774C145.921 161.425 146.175 161.283 146.29 161.225L159.081 154.53C159.42 154.352 159.829 154.597 159.831 154.98L159.928 169.527C159.93 169.784 159.786 170.023 159.554 170.144Z" fill="#966239"/>
<path opacity="0.5" d="M153.693 157.953C153.693 157.953 146.625 161.627 146.512 161.936C146.399 162.241 152.061 159.474 152.724 159.127C153.474 158.734 159.363 155.535 159.36 155.188C159.361 154.903 153.693 157.953 153.693 157.953Z" fill="#212121"/>
<g opacity="0.5">
<path d="M133.357 169.403C134.282 169.862 135.2 170.336 136.344 170.911L136.341 170.466C135.202 169.893 134.282 169.422 133.354 168.958L133.357 169.403ZM135.3 169.593C135.561 169.724 135.692 169.79 135.937 169.914C135.935 169.139 135.932 168.751 135.93 167.976C135.684 167.853 135.556 167.789 135.297 167.658C135.298 168.433 135.298 168.818 135.3 169.593ZM133.68 168.774C133.896 168.882 134.016 168.944 134.262 169.067L134.261 167.137C134.013 167.011 133.893 166.952 133.675 166.839C133.677 167.614 133.677 168.001 133.68 168.774Z" fill="#212121"/>
<path d="M134.88 167.678C135.475 167.977 135.791 168.137 136.315 168.399C136.052 167.928 135.908 167.689 135.619 167.206C135.328 167.398 135.176 167.491 134.88 167.678ZM133.34 166.901C133.784 167.128 134.082 167.278 134.669 167.574C134.376 167.089 134.23 166.847 133.959 166.372C133.688 166.571 133.561 166.674 133.34 166.901Z" fill="#212121"/>
</g>
<g opacity="0.5">
<path d="M138.121 171.509C138.329 171.615 138.437 171.672 138.645 171.778C138.624 170.858 138.613 170.398 138.59 169.478C138.389 169.375 138.289 169.323 138.088 169.222C138.101 170.137 138.107 170.594 138.121 171.509Z" fill="#212121"/>
<path d="M137.357 171.352C138.12 171.747 138.712 172.043 139.444 172.428C139.437 172.165 139.233 171.849 138.957 171.704C138.525 171.479 138.28 171.356 137.843 171.131C137.562 170.99 137.355 171.094 137.357 171.352ZM138.787 168.745L139.112 169.42C139.013 169.633 138.961 169.741 138.858 169.952C138.948 169.944 138.993 169.941 139.083 169.933C139.202 169.772 139.261 169.691 139.375 169.531C139.268 169.284 139.213 169.159 139.101 168.913C139.407 169.078 139.558 169.162 139.836 169.323C139.842 170.218 139.26 170.617 138.377 170.162C137.494 169.711 136.904 168.692 136.898 167.795C137.556 168.118 137.997 168.33 138.787 168.745Z" fill="#212121"/>
</g>
<path d="M155.253 156.418C155.128 156.326 141.659 149.403 141.659 149.403L137.508 151.583L151.318 158.589L151.325 158.596L155.339 156.507C155.339 156.507 155.331 156.487 155.309 156.462C155.291 156.447 155.261 156.425 155.253 156.418Z" fill="#FFE0B2"/>
<path d="M155.319 156.477C153.046 157.615 151.318 158.589 151.318 158.589C151.375 158.646 151.378 158.721 151.379 158.758C151.373 159.048 151.37 159.278 151.364 159.566C151.339 161.054 151.329 162.544 151.289 164.032C151.456 163.93 151.66 164.149 151.811 164.028C152.045 163.841 152.54 163.023 152.614 162.998C152.714 162.965 152.822 162.989 152.924 162.983C153.374 162.955 154.376 162.031 154.59 161.987C154.797 161.946 155.483 162.074 155.483 162.074C155.483 162.074 155.406 157.537 155.383 156.774C155.376 156.504 155.319 156.477 155.319 156.477Z" fill="#BF9F85"/>
</g>
<g clip-path="url(#clip1_102_87)">
<path d="M204.451 119.044L191.994 111.295C191.704 111.136 191.447 111.193 191.137 111.381L190.762 111.635L191.759 127.075L204.765 135.306C204.765 135.306 204.833 135.282 205.043 135.157C205.043 135.157 205.314 134.981 205.406 134.842C205.51 134.686 205.554 134.462 205.577 134.32C205.635 133.944 205.67 133.583 205.655 133.012C205.461 124.821 204.84 119.729 204.84 119.729C204.782 119.412 204.688 119.177 204.451 119.044Z" fill="#DEA66C"/>
<path d="M178.083 119.416C178.041 120.326 178.186 121.855 178.252 123.449C178.408 127.153 178.679 131.79 179.006 133.982C179.05 134.279 179.087 134.449 179.177 134.62C179.244 134.746 179.446 134.899 179.446 134.899C179.446 134.899 191.096 127.497 191.761 127.074C192.41 126.66 192.464 126.252 192.477 125.912C192.493 125.384 192.38 124.327 192.38 124.327C192.38 124.327 192.09 120.564 191.879 116.759C191.78 114.949 191.826 113.344 191.688 111.728C191.66 111.433 191.361 111.245 191.104 111.398L178.268 119.063C178.146 119.136 178.088 119.273 178.083 119.416Z" fill="#B38251"/>
<path d="M191.83 142.608L179.467 134.919C179.268 134.796 179.27 134.506 179.472 134.386L191.756 127.076C191.874 127.006 192.112 126.814 192.194 126.716C192.434 126.436 192.685 126.583 192.793 126.652L205.049 134.283C205.373 134.485 205.37 134.962 205.041 135.158L192.551 142.616C192.33 142.749 192.052 142.746 191.83 142.608Z" fill="#966239"/>
<path opacity="0.5" d="M199.367 131.375C199.367 131.375 192.616 127.145 192.293 127.204C191.972 127.262 197.228 130.739 197.863 131.134C198.582 131.582 204.325 135.036 204.623 134.858C204.869 134.714 199.367 131.375 199.367 131.375Z" fill="#212121"/>
<g opacity="0.5">
<path d="M179.187 119.65C179.26 120.681 179.317 121.712 179.402 122.99L179.784 122.762C179.7 121.49 179.639 120.457 179.569 119.422L179.187 119.65ZM180.009 121.422C180.028 121.713 180.037 121.859 180.055 122.134C180.722 121.739 181.055 121.54 181.721 121.145C181.703 120.87 181.693 120.728 181.675 120.439C181.007 120.832 180.675 121.027 180.009 121.422ZM179.893 119.61C179.909 119.851 179.917 119.986 179.935 120.26L181.599 119.282C181.581 119.004 181.571 118.87 181.558 118.624C180.892 119.019 180.558 119.216 179.893 119.61Z" fill="#212121"/>
<path d="M181.446 120.089C181.49 120.753 181.512 121.107 181.552 121.691C181.825 121.226 181.958 120.98 182.228 120.487C181.915 120.333 181.757 120.25 181.446 120.089ZM181.335 118.367C181.365 118.865 181.386 119.199 181.429 119.855C181.698 119.356 181.832 119.107 182.105 118.633C181.796 118.5 181.642 118.443 181.335 118.367Z" fill="#212121"/>
</g>
<g opacity="0.5">
<path d="M179.787 124.824C179.801 125.058 179.807 125.18 179.821 125.413C180.603 124.928 180.994 124.686 181.775 124.199C181.762 123.974 181.756 123.861 181.742 123.637C180.96 124.112 180.568 124.349 179.787 124.824Z" fill="#212121"/>
<path d="M179.535 124.086C179.581 124.944 179.626 125.604 179.666 126.431C179.889 126.292 180.057 125.956 180.043 125.644C180.018 125.158 180 124.884 179.972 124.394C179.951 124.08 179.756 123.954 179.535 124.086ZM182.508 123.998L182.09 124.62C181.856 124.643 181.737 124.653 181.503 124.67C181.555 124.744 181.581 124.781 181.633 124.855C181.832 124.876 181.932 124.886 182.128 124.903C182.287 124.686 182.366 124.574 182.522 124.353C182.534 124.701 182.538 124.873 182.541 125.195C181.773 125.654 181.134 125.354 181.077 124.362C181.019 123.372 181.598 122.348 182.369 121.888C182.423 122.618 182.464 123.106 182.508 123.998Z" fill="#212121"/>
</g>
<path d="M201.481 131.941C201.496 131.786 200.635 116.667 200.635 116.667L196.652 114.194L197.614 129.649L197.612 129.66L201.447 132.06C201.447 132.06 201.461 132.044 201.47 132.011C201.474 131.989 201.478 131.951 201.481 131.941Z" fill="#FFE0B2"/>
<path d="M201.463 132.028C199.33 130.646 197.614 129.649 197.614 129.649C197.594 129.728 197.531 129.769 197.499 129.788C197.246 129.93 197.046 130.044 196.795 130.185C195.5 130.917 194.211 131.664 192.908 132.384C193.08 132.476 192.995 132.763 193.176 132.832C193.455 132.939 194.411 132.951 194.471 133.002C194.55 133.072 194.584 133.177 194.641 133.262C194.893 133.636 196.197 134.03 196.344 134.193C196.485 134.351 196.722 135.007 196.722 135.007C196.722 135.007 200.594 132.64 201.239 132.234C201.469 132.091 201.463 132.028 201.463 132.028Z" fill="#BF9F85"/>
<path d="M171.159 107.992L158.796 100.303C158.598 100.18 158.599 99.8906 158.801 99.7701L171.086 92.4606C171.204 92.3901 171.459 92.1188 171.547 92.0225C171.636 91.9284 171.916 91.9041 172.024 91.9733L184.381 99.6662C184.705 99.8684 184.702 100.345 184.373 100.541L171.883 108C171.66 108.133 171.382 108.13 171.159 107.992Z" fill="#9E673C"/>
<path d="M225.122 153.66L212.752 145.954C212.111 145.603 211.429 146.22 211.429 146.22L212.425 161.69L225.464 169.939C225.507 169.928 225.738 169.808 226.129 169.498C226.335 169.335 226.344 168.424 226.325 167.626C226.128 159.436 225.505 154.345 225.505 154.345C225.452 154.027 225.358 153.792 225.122 153.66Z" fill="#DEA66C"/>
<path d="M198.753 154.031C198.711 154.941 198.856 156.471 198.922 158.065C199.078 161.769 199.349 166.406 199.677 168.598C199.774 169.253 200.048 169.468 200.048 169.468C200.048 169.468 211.985 162.005 212.666 161.61C212.952 161.445 213.132 160.869 213.144 160.527C213.16 159.999 213.047 158.942 213.047 158.942C213.047 158.942 212.757 155.179 212.546 151.374C212.447 149.564 212.493 147.958 212.355 146.343C212.331 146.049 212.03 145.858 211.776 146.013L198.941 153.678C198.816 153.752 198.758 153.889 198.753 154.031Z" fill="#BF8049"/>
<path d="M221.8 166.379C221.816 166.224 220.953 151.068 220.953 151.068L216.969 148.59L217.944 164.055C219.08 164.763 220.886 165.886 221.791 166.451C221.795 166.429 221.799 166.406 221.8 166.379Z" fill="#FFE0B2"/>
<path d="M214.838 105.923C214.748 106.201 214.744 106.507 214.75 106.8C214.782 108.263 214.887 109.72 214.981 111.184C215.026 111.917 215.074 112.652 215.119 113.385C215.162 114.107 215.21 114.83 215.254 115.552L215.376 117.497C215.407 118.008 215.439 118.519 215.472 119.029C215.491 119.338 215.51 119.648 215.532 119.958C215.556 120.354 215.529 120.655 215.865 120.929C216.144 121.158 216.511 120.963 216.825 120.865C217.689 120.6 218.512 120.213 219.306 119.783C220.359 119.215 221.369 118.566 222.375 117.921C223.584 117.147 224.865 116.487 226.072 115.696C226.403 115.478 226.739 115.266 227.069 115.054C227.363 114.867 227.526 114.522 227.654 114.21C227.809 113.829 227.961 113.412 228.304 113.187C228.865 112.814 228.689 112.139 228.621 111.591C228.52 110.763 228.499 109.92 228.445 109.087C228.252 106.134 228.108 103.178 228.013 100.22C228 99.8632 228.261 97.7045 227.407 98.2056C223.563 100.454 219.721 102.699 215.861 104.92C215.514 105.118 215.151 105.335 214.953 105.68C214.899 105.762 214.865 105.841 214.838 105.923Z" fill="#A06841"/>
<path d="M217.769 106.413C217.809 107.061 217.834 107.41 217.871 107.979C218.136 107.524 218.269 107.284 218.532 106.798C218.227 106.654 218.073 106.571 217.769 106.413ZM217.661 104.73C217.689 105.217 217.711 105.541 217.753 106.186C218.017 105.697 218.149 105.455 218.414 104.991C218.111 104.86 217.961 104.804 217.661 104.73ZM216.231 110.982C216.246 111.212 216.252 111.328 216.265 111.559L218.177 110.373C218.165 110.153 218.159 110.041 218.146 109.824C217.379 110.285 216.996 110.517 216.231 110.982Z" fill="#7D5133"/>
</g>
<g clip-path="url(#clip2_102_87)">
<path d="M174.115 161L183.83 145.069L196.63 145.161L186.915 161.092L174.115 161Z" fill="#89664C"/>
<path d="M186.915 161.092L174.115 161L183.6 177.068L196.399 177.16L186.915 161.092Z" fill="#FED0AC"/>
<path d="M196.63 145.161L186.915 161.092L196.399 177.16L206.114 161.23L196.63 145.161Z" fill="#D3976E"/>
<path d="M192.547 170.582L202.261 154.702L200.483 151.689L190.768 167.62L192.547 170.582Z" fill="#89664C"/>
<path d="M202.688 164.855L204.914 161.321L203.135 158.358L200.959 161.893L202.688 164.855Z" fill="#D0D0D0"/>
<path d="M192.497 170.532L190.817 167.72L186.217 167.687L187.897 170.499L192.497 170.532Z" fill="#D3976E"/>
<path d="M194.955 176.4L193.275 173.538L188.676 173.505L190.355 176.367L194.955 176.4ZM184.33 165.873L182.058 162.007L175.758 161.961L178.08 165.828L184.33 165.873Z" fill="white"/>
<path d="M178.018 167.628L179.697 170.44L184.297 170.473L182.617 167.661L178.018 167.628Z" fill="#D3976E"/>
</g>
<g clip-path="url(#clip3_102_87)">
<path d="M159.115 161L168.83 145.069L181.63 145.161L171.915 161.092L159.115 161Z" fill="#89664C"/>
<path d="M171.915 161.092L159.115 161L168.6 177.068L181.399 177.16L171.915 161.092Z" fill="#FED0AC"/>
<path d="M181.63 145.161L171.915 161.092L181.399 177.16L191.114 161.23L181.63 145.161Z" fill="#D3976E"/>
<path d="M177.547 170.582L187.261 154.702L185.483 151.689L175.768 167.62L177.547 170.582Z" fill="#89664C"/>
<path d="M187.688 164.855L189.914 161.321L188.135 158.358L185.959 161.893L187.688 164.855Z" fill="#D0D0D0"/>
<path d="M177.497 170.532L175.817 167.72L171.217 167.687L172.897 170.499L177.497 170.532Z" fill="#D3976E"/>
<path d="M179.955 176.4L178.275 173.538L173.676 173.505L175.355 176.367L179.955 176.4ZM169.33 165.873L167.058 162.007L160.758 161.961L163.08 165.828L169.33 165.873Z" fill="white"/>
<path d="M163.018 167.628L164.697 170.44L169.297 170.473L167.617 167.661L163.018 167.628Z" fill="#D3976E"/>
</g>
<g clip-path="url(#clip4_102_87)">
<path d="M157.685 149.289L176.344 149.211L182.976 160.159L164.317 160.238L157.685 149.289Z" fill="#89664C"/>
<path d="M164.317 160.238L157.685 149.289L148.974 165.79L155.605 176.738L164.317 160.238Z" fill="#FED0AC"/>
<path d="M182.976 160.159L164.317 160.238L155.605 176.738L174.264 176.66L182.976 160.159Z" fill="#D3976E"/>
<path d="M159.187 170.009L177.803 169.957L179.437 166.863L160.778 166.941L159.187 170.009Z" fill="#89664C"/>
<path d="M169.381 175.643L173.557 175.685L175.148 172.617L170.997 172.618L169.381 175.643Z" fill="#D0D0D0"/>
<path d="M159.204 169.94L160.718 167.036L158.335 163.101L156.821 166.006L159.204 169.94Z" fill="#D3976E"/>
<path d="M155.496 175.109L157.052 172.179L154.669 168.244L153.112 171.175L155.496 175.109ZM158.89 160.543L160.991 156.582L157.727 151.193L155.652 155.198L158.89 160.543Z" fill="white"/>
<path d="M154.087 156.087L152.572 158.992L154.956 162.927L156.47 160.022L154.087 156.087Z" fill="#D3976E"/>
</g>
<g clip-path="url(#clip5_102_87)">
<path d="M128.806 123.909L143.558 112.484L155.485 117.128L140.733 128.554L128.806 123.909Z" fill="#89664C"/>
<path d="M140.733 128.554L128.806 123.909L131.946 142.302L143.873 146.947L140.733 128.554Z" fill="#FED0AC"/>
<path d="M155.485 117.128L140.733 128.554L143.873 146.947L158.625 135.521L155.485 117.128Z" fill="#D3976E"/>
<path d="M142.616 139.428L157.349 128.049L156.761 124.6L142.009 136.026L142.616 139.428Z" fill="#89664C"/>
<path d="M154.132 137.689L157.47 135.179L156.863 131.777L153.572 134.305L154.132 137.689Z" fill="#D0D0D0"/>
<path d="M142.587 139.364L142.019 136.138L137.733 134.468L138.301 137.694L142.587 139.364Z" fill="#D3976E"/>
<path d="M142.794 145.722L142.244 142.45L137.958 140.78L138.508 144.053L142.794 145.722ZM136.616 132.102L135.869 127.68L129.999 125.393L130.792 129.834L136.616 132.102Z" fill="white"/>
<path d="M130.092 131.493L130.66 134.719L134.946 136.388L134.378 133.162L130.092 131.493Z" fill="#D3976E"/>
</g>
<g clip-path="url(#clip6_102_87)">
<path d="M191.643 129.319L178.648 136.128C178.364 136.297 178.283 136.547 178.288 136.91L178.316 137.362L192.13 144.331L205.818 137.292C205.818 137.292 205.833 137.222 205.831 136.977C205.831 136.977 205.817 136.655 205.743 136.505C205.662 136.336 205.491 136.184 205.38 136.093C205.086 135.852 204.792 135.639 204.293 135.362C197.134 131.377 192.43 129.331 192.43 129.331C192.127 129.22 191.877 129.182 191.643 129.319Z" fill="#DEA66C"/>
<path d="M178.595 152.236C179.358 152.733 180.75 153.384 182.157 154.135C185.429 155.878 189.563 157.996 191.619 158.824C191.897 158.938 192.062 158.991 192.255 159C192.397 159.007 192.632 158.91 192.632 158.91C192.632 158.91 192.158 145.116 192.13 144.328C192.102 143.558 191.778 143.306 191.492 143.122C191.045 142.84 190.077 142.402 190.077 142.402C190.077 142.402 186.686 140.744 183.299 138.997C181.689 138.165 180.328 137.311 178.866 136.611C178.597 136.485 178.284 136.647 178.286 136.947L178.385 151.897C178.386 152.04 178.474 152.159 178.595 152.236Z" fill="#B38251"/>
<path d="M205.554 152.144L192.659 158.903C192.452 159.011 192.204 158.863 192.202 158.628L192.13 144.333C192.129 144.196 192.084 143.894 192.041 143.774C191.921 143.425 192.175 143.283 192.29 143.225L205.081 136.53C205.42 136.352 205.829 136.597 205.831 136.98L205.928 151.527C205.93 151.784 205.786 152.023 205.554 152.144Z" fill="#966239"/>
<path opacity="0.5" d="M199.693 139.953C199.693 139.953 192.625 143.627 192.512 143.936C192.399 144.241 198.061 141.474 198.724 141.127C199.474 140.734 205.363 137.535 205.36 137.188C205.361 136.903 199.693 139.953 199.693 139.953Z" fill="#212121"/>
<g opacity="0.5">
<path d="M179.357 151.403C180.282 151.862 181.2 152.336 182.344 152.911L182.341 152.466C181.202 151.893 180.282 151.422 179.354 150.958L179.357 151.403ZM181.3 151.593C181.561 151.724 181.692 151.79 181.937 151.914C181.935 151.139 181.932 150.751 181.93 149.976C181.684 149.853 181.556 149.789 181.297 149.658C181.298 150.433 181.298 150.818 181.3 151.593ZM179.68 150.774C179.896 150.882 180.016 150.944 180.262 151.067L180.261 149.137C180.013 149.011 179.893 148.952 179.675 148.839C179.677 149.614 179.677 150.001 179.68 150.774Z" fill="#212121"/>
<path d="M180.88 149.678C181.475 149.977 181.791 150.137 182.315 150.399C182.052 149.928 181.908 149.689 181.619 149.206C181.328 149.398 181.176 149.491 180.88 149.678ZM179.34 148.901C179.784 149.128 180.082 149.278 180.669 149.574C180.376 149.089 180.23 148.847 179.959 148.372C179.688 148.571 179.561 148.674 179.34 148.901Z" fill="#212121"/>
</g>
<g opacity="0.5">
<path d="M184.121 153.509C184.329 153.615 184.437 153.672 184.645 153.778C184.624 152.858 184.613 152.398 184.59 151.478C184.389 151.375 184.289 151.323 184.088 151.222C184.101 152.137 184.107 152.594 184.121 153.509Z" fill="#212121"/>
<path d="M183.357 153.352C184.12 153.747 184.712 154.043 185.444 154.428C185.437 154.165 185.233 153.849 184.957 153.704C184.525 153.479 184.28 153.356 183.843 153.131C183.562 152.99 183.355 153.094 183.357 153.352ZM184.787 150.745L185.112 151.42C185.013 151.633 184.961 151.741 184.858 151.952C184.948 151.944 184.993 151.941 185.083 151.933C185.202 151.772 185.261 151.691 185.375 151.531C185.268 151.284 185.213 151.159 185.101 150.913C185.407 151.078 185.558 151.162 185.836 151.323C185.842 152.218 185.26 152.617 184.377 152.162C183.494 151.711 182.904 150.692 182.898 149.795C183.556 150.118 183.997 150.33 184.787 150.745Z" fill="#212121"/>
</g>
<path d="M201.253 138.418C201.128 138.326 187.659 131.403 187.659 131.403L183.508 133.583L197.318 140.589L197.325 140.596L201.339 138.507C201.339 138.507 201.331 138.487 201.309 138.462C201.291 138.447 201.261 138.425 201.253 138.418Z" fill="#FFE0B2"/>
<path d="M201.319 138.477C199.046 139.615 197.318 140.589 197.318 140.589C197.375 140.646 197.378 140.721 197.379 140.758C197.373 141.048 197.37 141.278 197.364 141.566C197.339 143.054 197.329 144.544 197.289 146.032C197.456 145.93 197.66 146.149 197.811 146.028C198.045 145.841 198.54 145.023 198.614 144.998C198.714 144.965 198.822 144.989 198.924 144.983C199.374 144.955 200.376 144.031 200.59 143.987C200.797 143.946 201.483 144.074 201.483 144.074C201.483 144.074 201.406 139.537 201.383 138.774C201.376 138.504 201.319 138.477 201.319 138.477Z" fill="#BF9F85"/>
</g>
<g clip-path="url(#clip7_102_87)">
<path d="M163.643 110.319L150.648 117.128C150.364 117.297 150.283 117.547 150.288 117.91L150.316 118.362L164.13 125.331L177.818 118.292C177.818 118.292 177.833 118.222 177.831 117.977C177.831 117.977 177.817 117.655 177.743 117.505C177.662 117.336 177.491 117.184 177.38 117.093C177.086 116.852 176.792 116.639 176.293 116.362C169.134 112.377 164.43 110.331 164.43 110.331C164.127 110.22 163.877 110.182 163.643 110.319Z" fill="#DEA66C"/>
<path d="M150.595 133.236C151.358 133.733 152.75 134.384 154.157 135.135C157.429 136.878 161.563 138.996 163.619 139.824C163.897 139.938 164.062 139.991 164.255 140C164.397 140.007 164.632 139.91 164.632 139.91C164.632 139.91 164.158 126.116 164.13 125.328C164.102 124.558 163.778 124.306 163.492 124.122C163.045 123.84 162.077 123.402 162.077 123.402C162.077 123.402 158.686 121.744 155.299 119.997C153.689 119.165 152.328 118.311 150.866 117.611C150.597 117.485 150.284 117.647 150.286 117.947L150.385 132.897C150.386 133.04 150.474 133.159 150.595 133.236Z" fill="#B38251"/>
<path d="M177.554 133.144L164.659 139.903C164.452 140.011 164.204 139.863 164.202 139.628L164.13 125.333C164.129 125.196 164.084 124.894 164.041 124.774C163.921 124.425 164.175 124.283 164.29 124.225L177.081 117.53C177.42 117.352 177.829 117.597 177.831 117.98L177.928 132.527C177.93 132.784 177.786 133.023 177.554 133.144Z" fill="#966239"/>
<path opacity="0.5" d="M171.693 120.953C171.693 120.953 164.625 124.627 164.512 124.936C164.399 125.241 170.061 122.474 170.724 122.127C171.474 121.734 177.363 118.535 177.36 118.188C177.361 117.903 171.693 120.953 171.693 120.953Z" fill="#212121"/>
<g opacity="0.5">
<path d="M151.357 132.403C152.282 132.862 153.2 133.336 154.344 133.911L154.341 133.466C153.202 132.893 152.282 132.422 151.354 131.958L151.357 132.403ZM153.3 132.593C153.561 132.724 153.692 132.79 153.937 132.914C153.935 132.139 153.932 131.751 153.93 130.976C153.684 130.853 153.556 130.789 153.297 130.658C153.298 131.433 153.298 131.818 153.3 132.593ZM151.68 131.774C151.896 131.882 152.016 131.944 152.262 132.067L152.261 130.137C152.013 130.011 151.893 129.952 151.675 129.839C151.677 130.614 151.677 131.001 151.68 131.774Z" fill="#212121"/>
<path d="M152.88 130.678C153.475 130.977 153.791 131.137 154.315 131.399C154.052 130.928 153.908 130.689 153.619 130.206C153.328 130.398 153.176 130.491 152.88 130.678ZM151.34 129.901C151.784 130.128 152.082 130.278 152.669 130.574C152.376 130.089 152.23 129.847 151.959 129.372C151.688 129.571 151.561 129.674 151.34 129.901Z" fill="#212121"/>
</g>
<g opacity="0.5">
<path d="M156.121 134.509C156.329 134.615 156.437 134.672 156.645 134.778C156.624 133.858 156.613 133.398 156.59 132.478C156.389 132.375 156.289 132.323 156.088 132.222C156.101 133.137 156.107 133.594 156.121 134.509Z" fill="#212121"/>
<path d="M155.357 134.352C156.12 134.747 156.712 135.043 157.444 135.428C157.437 135.165 157.233 134.849 156.957 134.704C156.525 134.479 156.28 134.356 155.843 134.131C155.562 133.99 155.355 134.094 155.357 134.352ZM156.787 131.745L157.112 132.42C157.013 132.633 156.961 132.741 156.858 132.952C156.948 132.944 156.993 132.941 157.083 132.933C157.202 132.772 157.261 132.691 157.375 132.531C157.268 132.284 157.213 132.159 157.101 131.913C157.407 132.078 157.558 132.162 157.836 132.323C157.842 133.218 157.26 133.617 156.377 133.162C155.494 132.711 154.904 131.692 154.898 130.795C155.556 131.118 155.997 131.33 156.787 131.745Z" fill="#212121"/>
</g>
<path d="M173.253 119.418C173.128 119.326 159.659 112.403 159.659 112.403L155.508 114.583L169.318 121.589L169.325 121.596L173.339 119.507C173.339 119.507 173.331 119.487 173.309 119.462C173.291 119.447 173.261 119.425 173.253 119.418Z" fill="#FFE0B2"/>
<path d="M173.319 119.477C171.046 120.615 169.318 121.589 169.318 121.589C169.375 121.646 169.378 121.721 169.379 121.758C169.373 122.048 169.37 122.278 169.364 122.566C169.339 124.054 169.329 125.544 169.289 127.032C169.456 126.93 169.66 127.149 169.811 127.028C170.045 126.841 170.54 126.023 170.614 125.998C170.714 125.965 170.822 125.989 170.924 125.983C171.374 125.955 172.376 125.031 172.59 124.987C172.797 124.946 173.483 125.074 173.483 125.074C173.483 125.074 173.406 120.537 173.383 119.774C173.376 119.504 173.319 119.477 173.319 119.477Z" fill="#BF9F85"/>
</g>
<g clip-path="url(#clip8_102_87)">
<path d="M144.643 133.319L131.648 140.128C131.364 140.297 131.283 140.547 131.288 140.91L131.316 141.362L145.13 148.331L158.818 141.292C158.818 141.292 158.833 141.222 158.831 140.977C158.831 140.977 158.817 140.655 158.743 140.505C158.662 140.336 158.491 140.184 158.38 140.093C158.086 139.852 157.792 139.639 157.293 139.362C150.134 135.377 145.43 133.331 145.43 133.331C145.127 133.22 144.877 133.182 144.643 133.319Z" fill="#DEA66C"/>
<path d="M131.595 156.236C132.358 156.733 133.75 157.384 135.157 158.135C138.429 159.878 142.563 161.996 144.619 162.824C144.897 162.938 145.062 162.991 145.255 163C145.397 163.007 145.632 162.91 145.632 162.91C145.632 162.91 145.158 149.116 145.13 148.328C145.102 147.558 144.778 147.306 144.492 147.122C144.045 146.84 143.077 146.402 143.077 146.402C143.077 146.402 139.686 144.744 136.299 142.997C134.689 142.165 133.328 141.311 131.866 140.611C131.597 140.485 131.284 140.647 131.286 140.947L131.385 155.897C131.386 156.04 131.474 156.159 131.595 156.236Z" fill="#B38251"/>
<path d="M158.554 156.144L145.659 162.903C145.452 163.011 145.204 162.863 145.202 162.628L145.13 148.333C145.129 148.196 145.084 147.894 145.041 147.774C144.921 147.425 145.175 147.283 145.29 147.225L158.081 140.53C158.42 140.352 158.829 140.597 158.831 140.98L158.928 155.527C158.93 155.784 158.786 156.023 158.554 156.144Z" fill="#966239"/>
<path opacity="0.5" d="M152.693 143.953C152.693 143.953 145.625 147.627 145.512 147.936C145.399 148.241 151.061 145.474 151.724 145.127C152.474 144.734 158.363 141.535 158.36 141.188C158.361 140.903 152.693 143.953 152.693 143.953Z" fill="#212121"/>
<g opacity="0.5">
<path d="M132.357 155.403C133.282 155.862 134.2 156.336 135.344 156.911L135.341 156.466C134.202 155.893 133.282 155.422 132.354 154.958L132.357 155.403ZM134.3 155.593C134.561 155.724 134.692 155.79 134.937 155.914C134.935 155.139 134.932 154.751 134.93 153.976C134.684 153.853 134.556 153.789 134.297 153.658C134.298 154.433 134.298 154.818 134.3 155.593ZM132.68 154.774C132.896 154.882 133.016 154.944 133.262 155.067L133.261 153.137C133.013 153.011 132.893 152.952 132.675 152.839C132.677 153.614 132.677 154.001 132.68 154.774Z" fill="#212121"/>
<path d="M133.88 153.678C134.475 153.977 134.791 154.137 135.315 154.399C135.052 153.928 134.908 153.689 134.619 153.206C134.328 153.398 134.176 153.491 133.88 153.678ZM132.34 152.901C132.784 153.128 133.082 153.278 133.669 153.574C133.376 153.089 133.23 152.847 132.959 152.372C132.688 152.571 132.561 152.674 132.34 152.901Z" fill="#212121"/>
</g>
<g opacity="0.5">
<path d="M137.121 157.509C137.329 157.615 137.437 157.672 137.645 157.778C137.624 156.858 137.613 156.398 137.59 155.478C137.389 155.375 137.289 155.323 137.088 155.222C137.101 156.137 137.107 156.594 137.121 157.509Z" fill="#212121"/>
<path d="M136.357 157.352C137.12 157.747 137.712 158.043 138.444 158.428C138.437 158.165 138.233 157.849 137.957 157.704C137.525 157.479 137.28 157.356 136.843 157.131C136.562 156.99 136.355 157.094 136.357 157.352ZM137.787 154.745L138.112 155.42C138.013 155.633 137.961 155.741 137.858 155.952C137.948 155.944 137.993 155.941 138.083 155.933C138.202 155.772 138.261 155.691 138.375 155.531C138.268 155.284 138.213 155.159 138.101 154.913C138.407 155.078 138.558 155.162 138.836 155.323C138.842 156.218 138.26 156.617 137.377 156.162C136.494 155.711 135.904 154.692 135.898 153.795C136.556 154.118 136.997 154.33 137.787 154.745Z" fill="#212121"/>
</g>
<path d="M154.253 142.418C154.128 142.326 140.659 135.403 140.659 135.403L136.508 137.583L150.318 144.589L150.325 144.596L154.339 142.507C154.339 142.507 154.331 142.487 154.309 142.462C154.291 142.447 154.261 142.425 154.253 142.418Z" fill="#FFE0B2"/>
<path d="M154.319 142.477C152.046 143.615 150.318 144.589 150.318 144.589C150.375 144.646 150.378 144.721 150.379 144.758C150.373 145.048 150.37 145.278 150.364 145.566C150.339 147.054 150.329 148.544 150.289 150.032C150.456 149.93 150.66 150.149 150.811 150.028C151.045 149.841 151.54 149.023 151.614 148.998C151.714 148.965 151.822 148.989 151.924 148.983C152.374 148.955 153.376 148.031 153.59 147.987C153.797 147.946 154.483 148.074 154.483 148.074C154.483 148.074 154.406 143.537 154.383 142.774C154.376 142.504 154.319 142.477 154.319 142.477Z" fill="#BF9F85"/>
</g>
<line x1="112" y1="213" x2="141" y2="213" stroke="#353A44" stroke-width="2"/>
<line x1="184" y1="213" x2="213" y2="213" stroke="#353A44" stroke-width="2"/>
<line x1="253" y1="213" x2="282" y2="213" stroke="#353A44" stroke-width="2"/>
<path d="M107.036 201.453C108.184 201.466 109.287 201.267 110.103 200.897C110.92 200.528 111.382 200.02 111.388 199.484C111.395 198.948 110.945 198.429 110.138 198.041C109.33 197.652 108.232 197.426 107.084 197.413C105.936 197.399 104.833 197.599 104.016 197.968C103.2 198.337 102.738 198.845 102.732 199.381C102.725 199.917 103.175 200.436 103.982 200.824C104.79 201.213 105.888 201.439 107.036 201.453Z" fill="url(#paint25_radial_102_87)"/>
<path d="M107.036 201.453C108.184 201.466 109.287 201.267 110.103 200.897C110.92 200.528 111.382 200.02 111.388 199.484C111.395 198.948 110.945 198.429 110.138 198.041C109.33 197.652 108.232 197.426 107.084 197.413C105.936 197.399 104.833 197.599 104.016 197.968C103.2 198.337 102.738 198.845 102.732 199.381C102.725 199.917 103.175 200.436 103.982 200.824C104.79 201.213 105.888 201.439 107.036 201.453Z" fill="url(#paint26_radial_102_87)"/>
<g filter="url(#filter12_i_102_87)">
<path d="M123.187 197.603C119.396 195.824 113.299 195.781 109.563 197.515C108.601 197.961 107.856 198.499 107.38 199.093C107.365 199.112 107.34 199.129 107.309 199.142C107.278 199.156 107.24 199.166 107.199 199.172C107.158 199.177 107.114 199.179 107.071 199.175C107.029 199.172 106.988 199.164 106.952 199.153C106.619 199.045 106.266 198.952 105.897 198.874C104.843 198.635 103.683 198.523 102.524 198.547C101.364 198.571 100.242 198.731 99.2604 199.013C98.2789 199.294 97.4695 199.687 96.9066 200.156C96.3438 200.626 96.0455 201.156 96.0393 201.698C96.0309 202.432 96.5561 203.15 97.5291 203.735C98.1747 204.142 99.0103 204.475 99.9704 204.709C100.93 204.943 101.989 205.071 103.063 205.084L116.686 205.246C118.121 205.263 119.537 205.121 120.816 204.829C122.096 204.537 123.201 204.106 124.039 203.57C126.98 201.821 126.7 199.253 123.187 197.602" fill="#D5D4DA"/>
<path d="M123.187 197.603C119.396 195.824 113.299 195.781 109.563 197.515C108.601 197.961 107.856 198.499 107.38 199.093C107.365 199.112 107.34 199.129 107.309 199.142C107.278 199.156 107.24 199.166 107.199 199.172C107.158 199.177 107.114 199.179 107.071 199.175C107.029 199.172 106.988 199.164 106.952 199.153C106.619 199.045 106.266 198.952 105.897 198.874C104.843 198.635 103.683 198.523 102.524 198.547C101.364 198.571 100.242 198.731 99.2604 199.013C98.2789 199.294 97.4695 199.687 96.9066 200.156C96.3438 200.626 96.0455 201.156 96.0393 201.698C96.0309 202.432 96.5561 203.15 97.5291 203.735C98.1747 204.142 99.0103 204.475 99.9704 204.709C100.93 204.943 101.989 205.071 103.063 205.084L116.686 205.246C118.121 205.263 119.537 205.121 120.816 204.829C122.096 204.537 123.201 204.106 124.039 203.57C126.98 201.821 126.7 199.253 123.187 197.602" fill="url(#paint27_linear_102_87)"/>
</g>
<path d="M123.187 197.603C119.396 195.824 113.299 195.781 109.563 197.515C108.601 197.961 107.856 198.499 107.38 199.093C107.365 199.112 107.34 199.129 107.309 199.142C107.278 199.156 107.24 199.166 107.199 199.172C107.158 199.177 107.114 199.179 107.071 199.175C107.029 199.172 106.988 199.164 106.952 199.153C106.619 199.045 106.266 198.952 105.897 198.874C104.843 198.635 103.683 198.523 102.524 198.547C101.364 198.571 100.242 198.731 99.2604 199.013C98.2789 199.294 97.4695 199.687 96.9066 200.156C96.3438 200.626 96.0455 201.156 96.0393 201.698C96.0309 202.432 96.5561 203.15 97.5291 203.735C98.1747 204.142 99.0103 204.475 99.9704 204.709C100.93 204.943 101.989 205.071 103.063 205.084L116.686 205.246C118.121 205.263 119.537 205.121 120.816 204.829C122.096 204.537 123.201 204.106 124.039 203.57C126.98 201.821 126.7 199.253 123.187 197.602" fill="url(#paint28_radial_102_87)"/>
<path d="M123.187 197.603C119.396 195.824 113.299 195.781 109.563 197.515C108.601 197.961 107.856 198.499 107.38 199.093C107.365 199.112 107.34 199.129 107.309 199.142C107.278 199.156 107.24 199.166 107.199 199.172C107.158 199.177 107.114 199.179 107.071 199.175C107.029 199.172 106.988 199.164 106.952 199.153C106.619 199.045 106.266 198.952 105.897 198.874C104.843 198.635 103.683 198.523 102.524 198.547C101.364 198.571 100.242 198.731 99.2604 199.013C98.2789 199.294 97.4695 199.687 96.9066 200.156C96.3438 200.626 96.0455 201.156 96.0393 201.698C96.0309 202.432 96.5561 203.15 97.5291 203.735C98.1747 204.142 99.0103 204.475 99.9704 204.709C100.93 204.943 101.989 205.071 103.063 205.084L116.686 205.246C118.121 205.263 119.537 205.121 120.816 204.829C122.096 204.537 123.201 204.106 124.039 203.57C126.98 201.821 126.7 199.253 123.187 197.602" fill="url(#paint29_radial_102_87)"/>
<path d="M123.187 197.603C119.396 195.824 113.299 195.781 109.563 197.515C108.601 197.961 107.856 198.499 107.38 199.093C107.365 199.112 107.34 199.129 107.309 199.142C107.278 199.156 107.24 199.166 107.199 199.172C107.158 199.177 107.114 199.179 107.071 199.175C107.029 199.172 106.988 199.164 106.952 199.153C106.619 199.045 106.266 198.952 105.897 198.874C104.843 198.635 103.683 198.523 102.524 198.547C101.364 198.571 100.242 198.731 99.2604 199.013C98.2789 199.294 97.4695 199.687 96.9066 200.156C96.3438 200.626 96.0455 201.156 96.0393 201.698C96.0309 202.432 96.5561 203.15 97.5291 203.735C98.1747 204.142 99.0103 204.475 99.9704 204.709C100.93 204.943 101.989 205.071 103.063 205.084L116.686 205.246C118.121 205.263 119.537 205.121 120.816 204.829C122.096 204.537 123.201 204.106 124.039 203.57C126.98 201.821 126.7 199.253 123.187 197.602" fill="url(#paint30_radial_102_87)"/>
<path d="M123.187 197.603C119.396 195.824 113.299 195.781 109.563 197.515C108.601 197.961 107.856 198.499 107.38 199.093C107.365 199.112 107.34 199.129 107.309 199.142C107.278 199.156 107.24 199.166 107.199 199.172C107.158 199.177 107.114 199.179 107.071 199.175C107.029 199.172 106.988 199.164 106.952 199.153C106.619 199.045 106.266 198.952 105.897 198.874C104.843 198.635 103.683 198.523 102.524 198.547C101.364 198.571 100.242 198.731 99.2604 199.013C98.2789 199.294 97.4695 199.687 96.9066 200.156C96.3438 200.626 96.0455 201.156 96.0393 201.698C96.0309 202.432 96.5561 203.15 97.5291 203.735C98.1747 204.142 99.0103 204.475 99.9704 204.709C100.93 204.943 101.989 205.071 103.063 205.084L116.686 205.246C118.121 205.263 119.537 205.121 120.816 204.829C122.096 204.537 123.201 204.106 124.039 203.57C126.98 201.821 126.7 199.253 123.187 197.602" fill="url(#paint31_radial_102_87)"/>
<path d="M79.8619 210.511C80.8844 210.531 81.8691 210.337 82.5994 209.972C83.3298 209.608 83.7459 209.102 83.7563 208.566C83.7667 208.03 83.3705 207.509 82.6549 207.116C81.9392 206.723 80.9628 206.491 79.9403 206.472C78.9179 206.452 77.9332 206.645 77.2029 207.01C76.4725 207.375 76.0564 207.881 76.046 208.416C76.0356 208.952 76.4318 209.474 77.1474 209.866C77.8631 210.259 78.8395 210.491 79.8619 210.511Z" fill="url(#paint32_radial_102_87)"/>
<path d="M79.8619 210.511C80.8844 210.531 81.8691 210.337 82.5994 209.972C83.3298 209.608 83.7459 209.102 83.7563 208.566C83.7667 208.03 83.3705 207.509 82.6549 207.116C81.9392 206.723 80.9628 206.491 79.9403 206.472C78.9179 206.452 77.9332 206.645 77.2029 207.01C76.4725 207.375 76.0564 207.881 76.046 208.416C76.0356 208.952 76.4318 209.474 77.1474 209.866C77.8631 210.259 78.8395 210.491 79.8619 210.511Z" fill="url(#paint33_radial_102_87)"/>
<g filter="url(#filter13_i_102_87)">
<path d="M94.2827 206.748C90.9221 204.949 85.4909 204.873 82.148 206.587C81.2866 207.028 80.6189 207.562 80.1893 208.154C80.1754 208.172 80.1536 208.189 80.1255 208.202C80.0974 208.216 80.0638 208.226 80.0271 208.231C79.9903 208.236 79.9515 208.238 79.9135 208.234C79.8754 208.231 79.8391 208.223 79.8073 208.211C79.5116 208.101 79.1977 208.006 78.8697 207.927C77.9334 207.682 76.9012 207.564 75.868 207.582C74.8348 207.6 73.8338 207.754 72.957 208.029C72.0802 208.305 71.3557 208.694 70.8502 209.16C70.3447 209.627 70.0744 210.155 70.0641 210.697C70.0501 211.431 70.5117 212.152 71.3732 212.742C71.9448 213.152 72.6862 213.49 73.5394 213.729C74.3926 213.969 75.3345 214.102 76.2914 214.12L88.4246 214.356C89.7028 214.381 90.9658 214.246 92.108 213.961C93.2501 213.677 94.2382 213.251 94.9897 212.719C97.6246 210.987 97.3977 208.417 94.2827 206.747" fill="#D5D4DA"/>
<path d="M94.2827 206.748C90.9221 204.949 85.4909 204.873 82.148 206.587C81.2866 207.028 80.6189 207.562 80.1893 208.154C80.1754 208.172 80.1536 208.189 80.1255 208.202C80.0974 208.216 80.0638 208.226 80.0271 208.231C79.9903 208.236 79.9515 208.238 79.9135 208.234C79.8754 208.231 79.8391 208.223 79.8073 208.211C79.5116 208.101 79.1977 208.006 78.8697 207.927C77.9334 207.682 76.9012 207.564 75.868 207.582C74.8348 207.6 73.8338 207.754 72.957 208.029C72.0802 208.305 71.3557 208.694 70.8502 209.16C70.3447 209.627 70.0744 210.155 70.0641 210.697C70.0501 211.431 70.5117 212.152 71.3732 212.742C71.9448 213.152 72.6862 213.49 73.5394 213.729C74.3926 213.969 75.3345 214.102 76.2914 214.12L88.4246 214.356C89.7028 214.381 90.9658 214.246 92.108 213.961C93.2501 213.677 94.2382 213.251 94.9897 212.719C97.6246 210.987 97.3977 208.417 94.2827 206.747" fill="url(#paint34_linear_102_87)"/>
</g>
<path d="M94.2827 206.748C90.9221 204.949 85.4909 204.873 82.148 206.587C81.2866 207.028 80.6189 207.562 80.1893 208.154C80.1754 208.172 80.1536 208.189 80.1255 208.202C80.0974 208.216 80.0638 208.226 80.0271 208.231C79.9903 208.236 79.9515 208.238 79.9135 208.234C79.8754 208.231 79.8391 208.223 79.8073 208.211C79.5116 208.101 79.1977 208.006 78.8697 207.927C77.9334 207.682 76.9012 207.564 75.868 207.582C74.8348 207.6 73.8338 207.754 72.957 208.029C72.0802 208.305 71.3557 208.694 70.8502 209.16C70.3447 209.627 70.0744 210.155 70.0641 210.697C70.0501 211.431 70.5117 212.152 71.3732 212.742C71.9448 213.152 72.6862 213.49 73.5394 213.729C74.3926 213.969 75.3345 214.102 76.2914 214.12L88.4246 214.356C89.7028 214.381 90.9658 214.246 92.108 213.961C93.2501 213.677 94.2382 213.251 94.9897 212.719C97.6246 210.987 97.3977 208.417 94.2827 206.747" fill="url(#paint35_radial_102_87)"/>
<path d="M94.2827 206.748C90.9221 204.949 85.4909 204.873 82.148 206.587C81.2866 207.028 80.6189 207.562 80.1893 208.154C80.1754 208.172 80.1536 208.189 80.1255 208.202C80.0974 208.216 80.0638 208.226 80.0271 208.231C79.9903 208.236 79.9515 208.238 79.9135 208.234C79.8754 208.231 79.8391 208.223 79.8073 208.211C79.5116 208.101 79.1977 208.006 78.8697 207.927C77.9334 207.682 76.9012 207.564 75.868 207.582C74.8348 207.6 73.8338 207.754 72.957 208.029C72.0802 208.305 71.3557 208.694 70.8502 209.16C70.3447 209.627 70.0744 210.155 70.0641 210.697C70.0501 211.431 70.5117 212.152 71.3732 212.742C71.9448 213.152 72.6862 213.49 73.5394 213.729C74.3926 213.969 75.3345 214.102 76.2914 214.12L88.4246 214.356C89.7028 214.381 90.9658 214.246 92.108 213.961C93.2501 213.677 94.2382 213.251 94.9897 212.719C97.6246 210.987 97.3977 208.417 94.2827 206.747" fill="url(#paint36_radial_102_87)"/>
<path d="M94.2827 206.748C90.9221 204.949 85.4909 204.873 82.148 206.587C81.2866 207.028 80.6189 207.562 80.1893 208.154C80.1754 208.172 80.1536 208.189 80.1255 208.202C80.0974 208.216 80.0638 208.226 80.0271 208.231C79.9903 208.236 79.9515 208.238 79.9135 208.234C79.8754 208.231 79.8391 208.223 79.8073 208.211C79.5116 208.101 79.1977 208.006 78.8697 207.927C77.9334 207.682 76.9012 207.564 75.868 207.582C74.8348 207.6 73.8338 207.754 72.957 208.029C72.0802 208.305 71.3557 208.694 70.8502 209.16C70.3447 209.627 70.0744 210.155 70.0641 210.697C70.0501 211.431 70.5117 212.152 71.3732 212.742C71.9448 213.152 72.6862 213.49 73.5394 213.729C74.3926 213.969 75.3345 214.102 76.2914 214.12L88.4246 214.356C89.7028 214.381 90.9658 214.246 92.108 213.961C93.2501 213.677 94.2382 213.251 94.9897 212.719C97.6246 210.987 97.3977 208.417 94.2827 206.747" fill="url(#paint37_radial_102_87)"/>
<path d="M94.2827 206.748C90.9221 204.949 85.4909 204.873 82.148 206.587C81.2866 207.028 80.6189 207.562 80.1893 208.154C80.1754 208.172 80.1536 208.189 80.1255 208.202C80.0974 208.216 80.0638 208.226 80.0271 208.231C79.9903 208.236 79.9515 208.238 79.9135 208.234C79.8754 208.231 79.8391 208.223 79.8073 208.211C79.5116 208.101 79.1977 208.006 78.8697 207.927C77.9334 207.682 76.9012 207.564 75.868 207.582C74.8348 207.6 73.8338 207.754 72.957 208.029C72.0802 208.305 71.3557 208.694 70.8502 209.16C70.3447 209.627 70.0744 210.155 70.0641 210.697C70.0501 211.431 70.5117 212.152 71.3732 212.742C71.9448 213.152 72.6862 213.49 73.5394 213.729C74.3926 213.969 75.3345 214.102 76.2914 214.12L88.4246 214.356C89.7028 214.381 90.9658 214.246 92.108 213.961C93.2501 213.677 94.2382 213.251 94.9897 212.719C97.6246 210.987 97.3977 208.417 94.2827 206.747" fill="url(#paint38_radial_102_87)"/>
<defs>
<filter id="filter0_d_102_87" x="18.1349" y="138.135" width="164.336" height="168.624" filterUnits="userSpaceOnUse" color-interpolation-filters="sRGB">
<feFlood flood-opacity="0" result="BackgroundImageFix"/>
<feColorMatrix in="SourceAlpha" type="matrix" values="0 0 0 0 0 0 0 0 0 0 0 0 0 0 0 0 0 0 127 0" result="hardAlpha"/>
<feOffset dy="4"/>
<feGaussianBlur stdDeviation="2"/>
<feComposite in2="hardAlpha" operator="out"/>
<feColorMatrix type="matrix" values="0 0 0 0 0 0 0 0 0 0 0 0 0 0 0 0 0 0 0.25 0"/>
<feBlend mode="normal" in2="BackgroundImageFix" result="effect1_dropShadow_102_87"/>
<feBlend mode="normal" in="SourceGraphic" in2="effect1_dropShadow_102_87" result="shape"/>
</filter>
<filter id="filter1_d_102_87" x="90.8108" y="33.4396" width="236.582" height="242.748" filterUnits="userSpaceOnUse" color-interpolation-filters="sRGB">
<feFlood flood-opacity="0" result="BackgroundImageFix"/>
<feColorMatrix in="SourceAlpha" type="matrix" values="0 0 0 0 0 0 0 0 0 0 0 0 0 0 0 0 0 0 127 0" result="hardAlpha"/>
<feOffset dy="4"/>
<feGaussianBlur stdDeviation="2"/>
<feComposite in2="hardAlpha" operator="out"/>
<feColorMatrix type="matrix" values="0 0 0 0 0 0 0 0 0 0 0 0 0 0 0 0 0 0 0.25 0"/>
<feBlend mode="normal" in2="BackgroundImageFix" result="effect1_dropShadow_102_87"/>
<feBlend mode="normal" in="SourceGraphic" in2="effect1_dropShadow_102_87" result="shape"/>
</filter>
<filter id="filter2_d_102_87" x="162.445" y="127.445" width="215.135" height="208.483" filterUnits="userSpaceOnUse" color-interpolation-filters="sRGB">
<feFlood flood-opacity="0" result="BackgroundImageFix"/>
<feColorMatrix in="SourceAlpha" type="matrix" values="0 0 0 0 0 0 0 0 0 0 0 0 0 0 0 0 0 0 127 0" result="hardAlpha"/>
<feOffset dy="4"/>
<feGaussianBlur stdDeviation="2"/>
<feComposite in2="hardAlpha" operator="out"/>
<feColorMatrix type="matrix" values="0 0 0 0 0 0 0 0 0 0 0 0 0 0 0 0 0 0 0.25 0"/>
<feBlend mode="normal" in2="BackgroundImageFix" result="effect1_dropShadow_102_87"/>
<feBlend mode="normal" in="SourceGraphic" in2="effect1_dropShadow_102_87" result="shape"/>
</filter>
<filter id="filter3_ii_102_87" x="205.358" y="139.393" width="57.1425" height="46.6906" filterUnits="userSpaceOnUse" color-interpolation-filters="sRGB">
<feFlood flood-opacity="0" result="BackgroundImageFix"/>
<feBlend mode="normal" in="SourceGraphic" in2="BackgroundImageFix" result="shape"/>
<feColorMatrix in="SourceAlpha" type="matrix" values="0 0 0 0 0 0 0 0 0 0 0 0 0 0 0 0 0 0 127 0" result="hardAlpha"/>
<feOffset dx="-1" dy="0.2"/>
<feGaussianBlur stdDeviation="0.25"/>
<feComposite in2="hardAlpha" operator="arithmetic" k2="-1" k3="1"/>
<feColorMatrix type="matrix" values="0 0 0 0 1 0 0 0 0 0.945098 0 0 0 0 0.996078 0 0 0 1 0"/>
<feBlend mode="normal" in2="shape" result="effect1_innerShadow_102_87"/>
<feColorMatrix in="SourceAlpha" type="matrix" values="0 0 0 0 0 0 0 0 0 0 0 0 0 0 0 0 0 0 127 0" result="hardAlpha"/>
<feOffset dx="0.5"/>
<feGaussianBlur stdDeviation="0.25"/>
<feComposite in2="hardAlpha" operator="arithmetic" k2="-1" k3="1"/>
<feColorMatrix type="matrix" values="0 0 0 0 0.678431 0 0 0 0 0.639216 0 0 0 0 0.643137 0 0 0 1 0"/>
<feBlend mode="normal" in2="effect1_innerShadow_102_87" result="effect2_innerShadow_102_87"/>
</filter>
<filter id="filter4_ii_102_87" x="130.501" y="116" width="75.8566" height="66.6739" filterUnits="userSpaceOnUse" color-interpolation-filters="sRGB">
<feFlood flood-opacity="0" result="BackgroundImageFix"/>
<feBlend mode="normal" in="SourceGraphic" in2="BackgroundImageFix" result="shape"/>
<feColorMatrix in="SourceAlpha" type="matrix" values="0 0 0 0 0 0 0 0 0 0 0 0 0 0 0 0 0 0 127 0" result="hardAlpha"/>
<feOffset dx="0.8"/>
<feGaussianBlur stdDeviation="0.25"/>
<feComposite in2="hardAlpha" operator="arithmetic" k2="-1" k3="1"/>
<feColorMatrix type="matrix" values="0 0 0 0 0.784314 0 0 0 0 0.615686 0 0 0 0 0.258824 0 0 0 1 0"/>
<feBlend mode="normal" in2="shape" result="effect1_innerShadow_102_87"/>
<feColorMatrix in="SourceAlpha" type="matrix" values="0 0 0 0 0 0 0 0 0 0 0 0 0 0 0 0 0 0 127 0" result="hardAlpha"/>
<feOffset dx="-1"/>
<feGaussianBlur stdDeviation="0.25"/>
<feComposite in2="hardAlpha" operator="arithmetic" k2="-1" k3="1"/>
<feColorMatrix type="matrix" values="0 0 0 0 0.909804 0 0 0 0 0.756863 0 0 0 0 0.27451 0 0 0 1 0"/>
<feBlend mode="normal" in2="effect1_innerShadow_102_87" result="effect2_innerShadow_102_87"/>
</filter>
<filter id="filter5_ii_102_87" x="154.343" y="200.163" width="14.1356" height="14.1356" filterUnits="userSpaceOnUse" color-interpolation-filters="sRGB">
<feFlood flood-opacity="0" result="BackgroundImageFix"/>
<feBlend mode="normal" in="SourceGraphic" in2="BackgroundImageFix" result="shape"/>
<feColorMatrix in="SourceAlpha" type="matrix" values="0 0 0 0 0 0 0 0 0 0 0 0 0 0 0 0 0 0 127 0" result="hardAlpha"/>
<feOffset dx="0.05" dy="-0.05"/>
<feGaussianBlur stdDeviation="0.05"/>
<feComposite in2="hardAlpha" operator="arithmetic" k2="-1" k3="1"/>
<feColorMatrix type="matrix" values="0 0 0 0 0.478431 0 0 0 0 0.364706 0 0 0 0 0.584314 0 0 0 1 0"/>
<feBlend mode="normal" in2="shape" result="effect1_innerShadow_102_87"/>
<feColorMatrix in="SourceAlpha" type="matrix" values="0 0 0 0 0 0 0 0 0 0 0 0 0 0 0 0 0 0 127 0" result="hardAlpha"/>
<feOffset dx="-0.05" dy="0.05"/>
<feGaussianBlur stdDeviation="0.05"/>
<feComposite in2="hardAlpha" operator="arithmetic" k2="-1" k3="1"/>
<feColorMatrix type="matrix" values="0 0 0 0 0.807843 0 0 0 0 0.764706 0 0 0 0 0.858824 0 0 0 1 0"/>
<feBlend mode="normal" in2="effect1_innerShadow_102_87" result="effect2_innerShadow_102_87"/>
</filter>
<filter id="filter6_ii_102_87" x="145.038" y="190.991" width="32.4784" height="32.6284" filterUnits="userSpaceOnUse" color-interpolation-filters="sRGB">
<feFlood flood-opacity="0" result="BackgroundImageFix"/>
<feBlend mode="normal" in="SourceGraphic" in2="BackgroundImageFix" result="shape"/>
<feColorMatrix in="SourceAlpha" type="matrix" values="0 0 0 0 0 0 0 0 0 0 0 0 0 0 0 0 0 0 127 0" result="hardAlpha"/>
<feOffset/>
<feGaussianBlur stdDeviation="0.5"/>
<feComposite in2="hardAlpha" operator="arithmetic" k2="-1" k3="1"/>
<feColorMatrix type="matrix" values="0 0 0 0 0.145098 0 0 0 0 0.0823529 0 0 0 0 0.215686 0 0 0 1 0"/>
<feBlend mode="normal" in2="shape" result="effect1_innerShadow_102_87"/>
<feColorMatrix in="SourceAlpha" type="matrix" values="0 0 0 0 0 0 0 0 0 0 0 0 0 0 0 0 0 0 127 0" result="hardAlpha"/>
<feOffset dy="0.15"/>
<feGaussianBlur stdDeviation="0.125"/>
<feComposite in2="hardAlpha" operator="arithmetic" k2="-1" k3="1"/>
<feColorMatrix type="matrix" values="0 0 0 0 0.207843 0 0 0 0 0.0313726 0 0 0 0 0.235294 0 0 0 1 0"/>
<feBlend mode="normal" in2="effect1_innerShadow_102_87" result="effect2_innerShadow_102_87"/>
</filter>
<filter id="filter7_ii_102_87" x="155.219" y="201.188" width="12.0864" height="12.0864" filterUnits="userSpaceOnUse" color-interpolation-filters="sRGB">
<feFlood flood-opacity="0" result="BackgroundImageFix"/>
<feBlend mode="normal" in="SourceGraphic" in2="BackgroundImageFix" result="shape"/>
<feColorMatrix in="SourceAlpha" type="matrix" values="0 0 0 0 0 0 0 0 0 0 0 0 0 0 0 0 0 0 127 0" result="hardAlpha"/>
<feOffset dx="0.05" dy="-0.05"/>
<feGaussianBlur stdDeviation="0.05"/>
<feComposite in2="hardAlpha" operator="arithmetic" k2="-1" k3="1"/>
<feColorMatrix type="matrix" values="0 0 0 0 0.478431 0 0 0 0 0.364706 0 0 0 0 0.584314 0 0 0 1 0"/>
<feBlend mode="normal" in2="shape" result="effect1_innerShadow_102_87"/>
<feColorMatrix in="SourceAlpha" type="matrix" values="0 0 0 0 0 0 0 0 0 0 0 0 0 0 0 0 0 0 127 0" result="hardAlpha"/>
<feOffset dx="-0.05" dy="0.05"/>
<feGaussianBlur stdDeviation="0.05"/>
<feComposite in2="hardAlpha" operator="arithmetic" k2="-1" k3="1"/>
<feColorMatrix type="matrix" values="0 0 0 0 0.807843 0 0 0 0 0.764706 0 0 0 0 0.858824 0 0 0 1 0"/>
<feBlend mode="normal" in2="effect1_innerShadow_102_87" result="effect2_innerShadow_102_87"/>
</filter>
<filter id="filter8_ii_102_87" x="214.41" y="190.991" width="32.4784" height="32.6284" filterUnits="userSpaceOnUse" color-interpolation-filters="sRGB">
<feFlood flood-opacity="0" result="BackgroundImageFix"/>
<feBlend mode="normal" in="SourceGraphic" in2="BackgroundImageFix" result="shape"/>
<feColorMatrix in="SourceAlpha" type="matrix" values="0 0 0 0 0 0 0 0 0 0 0 0 0 0 0 0 0 0 127 0" result="hardAlpha"/>
<feOffset/>
<feGaussianBlur stdDeviation="0.5"/>
<feComposite in2="hardAlpha" operator="arithmetic" k2="-1" k3="1"/>
<feColorMatrix type="matrix" values="0 0 0 0 0.145098 0 0 0 0 0.0823529 0 0 0 0 0.215686 0 0 0 1 0"/>
<feBlend mode="normal" in2="shape" result="effect1_innerShadow_102_87"/>
<feColorMatrix in="SourceAlpha" type="matrix" values="0 0 0 0 0 0 0 0 0 0 0 0 0 0 0 0 0 0 127 0" result="hardAlpha"/>
<feOffset dy="0.15"/>
<feGaussianBlur stdDeviation="0.125"/>
<feComposite in2="hardAlpha" operator="arithmetic" k2="-1" k3="1"/>
<feColorMatrix type="matrix" values="0 0 0 0 0.207843 0 0 0 0 0.0313726 0 0 0 0 0.235294 0 0 0 1 0"/>
<feBlend mode="normal" in2="effect1_innerShadow_102_87" result="effect2_innerShadow_102_87"/>
</filter>
<filter id="filter9_ii_102_87" x="224.596" y="201.188" width="12.0864" height="12.0864" filterUnits="userSpaceOnUse" color-interpolation-filters="sRGB">
<feFlood flood-opacity="0" result="BackgroundImageFix"/>
<feBlend mode="normal" in="SourceGraphic" in2="BackgroundImageFix" result="shape"/>
<feColorMatrix in="SourceAlpha" type="matrix" values="0 0 0 0 0 0 0 0 0 0 0 0 0 0 0 0 0 0 127 0" result="hardAlpha"/>
<feOffset dx="0.05" dy="-0.05"/>
<feGaussianBlur stdDeviation="0.05"/>
<feComposite in2="hardAlpha" operator="arithmetic" k2="-1" k3="1"/>
<feColorMatrix type="matrix" values="0 0 0 0 0.478431 0 0 0 0 0.364706 0 0 0 0 0.584314 0 0 0 1 0"/>
<feBlend mode="normal" in2="shape" result="effect1_innerShadow_102_87"/>
<feColorMatrix in="SourceAlpha" type="matrix" values="0 0 0 0 0 0 0 0 0 0 0 0 0 0 0 0 0 0 127 0" result="hardAlpha"/>
<feOffset dx="-0.05" dy="0.05"/>
<feGaussianBlur stdDeviation="0.05"/>
<feComposite in2="hardAlpha" operator="arithmetic" k2="-1" k3="1"/>
<feColorMatrix type="matrix" values="0 0 0 0 0.807843 0 0 0 0 0.764706 0 0 0 0 0.858824 0 0 0 1 0"/>
<feBlend mode="normal" in2="effect1_innerShadow_102_87" result="effect2_innerShadow_102_87"/>
</filter>
<filter id="filter10_f_102_87" x="217.525" y="193.246" width="24.7789" height="24.7789" filterUnits="userSpaceOnUse" color-interpolation-filters="sRGB">
<feFlood flood-opacity="0" result="BackgroundImageFix"/>
<feBlend mode="normal" in="SourceGraphic" in2="BackgroundImageFix" result="shape"/>
<feGaussianBlur stdDeviation="0.375" result="effect1_foregroundBlur_102_87"/>
</filter>
<filter id="filter11_f_102_87" x="147.95" y="193.246" width="24.7789" height="24.7789" filterUnits="userSpaceOnUse" color-interpolation-filters="sRGB">
<feFlood flood-opacity="0" result="BackgroundImageFix"/>
<feBlend mode="normal" in="SourceGraphic" in2="BackgroundImageFix" result="shape"/>
<feGaussianBlur stdDeviation="0.375" result="effect1_foregroundBlur_102_87"/>
</filter>
<filter id="filter12_i_102_87" x="96.0392" y="195.241" width="30.0124" height="10.0062" filterUnits="userSpaceOnUse" color-interpolation-filters="sRGB">
<feFlood flood-opacity="0" result="BackgroundImageFix"/>
<feBlend mode="normal" in="SourceGraphic" in2="BackgroundImageFix" result="shape"/>
<feColorMatrix in="SourceAlpha" type="matrix" values="0 0 0 0 0 0 0 0 0 0 0 0 0 0 0 0 0 0 127 0" result="hardAlpha"/>
<feOffset dy="-1"/>
<feGaussianBlur stdDeviation="1"/>
<feComposite in2="hardAlpha" operator="arithmetic" k2="-1" k3="1"/>
<feColorMatrix type="matrix" values="0 0 0 0 0.815686 0 0 0 0 0.784314 0 0 0 0 0.956863 0 0 0 1 0"/>
<feBlend mode="normal" in2="shape" result="effect1_innerShadow_102_87"/>
</filter>
<filter id="filter13_i_102_87" x="70.0638" y="204.349" width="26.7429" height="10.0101" filterUnits="userSpaceOnUse" color-interpolation-filters="sRGB">
<feFlood flood-opacity="0" result="BackgroundImageFix"/>
<feBlend mode="normal" in="SourceGraphic" in2="BackgroundImageFix" result="shape"/>
<feColorMatrix in="SourceAlpha" type="matrix" values="0 0 0 0 0 0 0 0 0 0 0 0 0 0 0 0 0 0 127 0" result="hardAlpha"/>
<feOffset dy="-1"/>
<feGaussianBlur stdDeviation="1"/>
<feComposite in2="hardAlpha" operator="arithmetic" k2="-1" k3="1"/>
<feColorMatrix type="matrix" values="0 0 0 0 0.815686 0 0 0 0 0.784314 0 0 0 0 0.956863 0 0 0 1 0"/>
<feBlend mode="normal" in2="shape" result="effect1_innerShadow_102_87"/>
</filter>
<linearGradient id="paint0_linear_102_87" x1="259.366" y1="158.313" x2="205.858" y2="158.313" gradientUnits="userSpaceOnUse">
<stop stop-color="#C9BDD1"/>
<stop offset="1" stop-color="#EBDDF3"/>
</linearGradient>
<linearGradient id="paint1_linear_102_87" x1="231.108" y1="138.625" x2="231.108" y2="142.214" gradientUnits="userSpaceOnUse">
<stop stop-color="#C8C6C5"/>
<stop offset="0.495" stop-color="#C8C6C5" stop-opacity="0"/>
</linearGradient>
<linearGradient id="paint2_linear_102_87" x1="205.858" y1="157.082" x2="206.821" y2="157.082" gradientUnits="userSpaceOnUse">
<stop stop-color="#604114"/>
<stop offset="1" stop-color="#604114" stop-opacity="0"/>
</linearGradient>
<linearGradient id="paint3_linear_102_87" x1="202.297" y1="181.486" x2="131.001" y2="141.994" gradientUnits="userSpaceOnUse">
<stop stop-color="#F1C147"/>
<stop offset="1" stop-color="#E0B343"/>
</linearGradient>
<linearGradient id="paint4_linear_102_87" x1="168.429" y1="116" x2="168.429" y2="125.778" gradientUnits="userSpaceOnUse">
<stop stop-color="#EAC439"/>
<stop offset="1" stop-color="#EAC439" stop-opacity="0"/>
</linearGradient>
<linearGradient id="paint5_linear_102_87" x1="131.001" y1="154.013" x2="132.353" y2="154.013" gradientUnits="userSpaceOnUse">
<stop stop-color="#DDBE7A"/>
<stop offset="1" stop-color="#DDBE7A" stop-opacity="0"/>
</linearGradient>
<linearGradient id="paint6_linear_102_87" x1="227.201" y1="148.165" x2="255.567" y2="172.143" gradientUnits="userSpaceOnUse">
<stop stop-color="#35A5E2"/>
<stop offset="1" stop-color="#4AD3F9"/>
</linearGradient>
<linearGradient id="paint7_linear_102_87" x1="242.561" y1="144.118" x2="242.561" y2="162.037" gradientUnits="userSpaceOnUse">
<stop stop-color="#1D95DD"/>
<stop offset="1" stop-color="#1D95DD" stop-opacity="0"/>
</linearGradient>
<linearGradient id="paint8_linear_102_87" x1="222.635" y1="160.554" x2="229.321" y2="160.554" gradientUnits="userSpaceOnUse">
<stop stop-color="#48B8E6"/>
<stop offset="1" stop-color="#48B8E6" stop-opacity="0"/>
</linearGradient>
<linearGradient id="paint9_linear_102_87" x1="183.26" y1="176.798" x2="183.05" y2="205.183" gradientUnits="userSpaceOnUse">
<stop stop-color="#FD6E33"/>
<stop offset="1" stop-color="#EB3C3D"/>
</linearGradient>
<linearGradient id="paint10_linear_102_87" x1="205.858" y1="188.915" x2="200.706" y2="188.915" gradientUnits="userSpaceOnUse">
<stop offset="0.513" stop-color="#EA3A0C"/>
<stop offset="1" stop-color="#EA3A0C" stop-opacity="0"/>
</linearGradient>
<linearGradient id="paint11_linear_102_87" x1="168.429" y1="213.641" x2="168.429" y2="201.65" gradientUnits="userSpaceOnUse">
<stop stop-color="#BC2447"/>
<stop offset="1" stop-color="#BC2447" stop-opacity="0"/>
</linearGradient>
<linearGradient id="paint12_linear_102_87" x1="140.366" y1="188.807" x2="132.899" y2="197.434" gradientUnits="userSpaceOnUse">
<stop stop-color="#BD0663"/>
<stop offset="1" stop-color="#C8166A"/>
</linearGradient>
<linearGradient id="paint13_linear_102_87" x1="233.929" y1="174.772" x2="233.929" y2="209.618" gradientUnits="userSpaceOnUse">
<stop stop-color="#FF7233"/>
<stop offset="1" stop-color="#EE3124"/>
</linearGradient>
<linearGradient id="paint14_linear_102_87" x1="205.858" y1="193.926" x2="214.485" y2="193.926" gradientUnits="userSpaceOnUse">
<stop stop-color="#FF7B3D"/>
<stop offset="1" stop-color="#FF7B3D" stop-opacity="0"/>
</linearGradient>
<linearGradient id="paint15_linear_102_87" x1="233.929" y1="209.618" x2="233.929" y2="201.674" gradientUnits="userSpaceOnUse">
<stop stop-color="#BC2447"/>
<stop offset="1" stop-color="#BC2447" stop-opacity="0"/>
</linearGradient>
<linearGradient id="paint16_linear_102_87" x1="205.858" y1="189.299" x2="206.821" y2="189.299" gradientUnits="userSpaceOnUse">
<stop stop-color="#BC2303"/>
<stop offset="1" stop-color="#BC2303" stop-opacity="0"/>
</linearGradient>
<linearGradient id="paint17_linear_102_87" x1="230.649" y1="188.924" x2="230.649" y2="209.617" gradientUnits="userSpaceOnUse">
<stop stop-color="#99160C"/>
<stop offset="1" stop-color="#AC0819"/>
</linearGradient>
<linearGradient id="paint18_linear_102_87" x1="161.411" y1="188.924" x2="161.411" y2="209.617" gradientUnits="userSpaceOnUse">
<stop stop-color="#99160C"/>
<stop offset="1" stop-color="#AC0819"/>
</linearGradient>
<linearGradient id="paint19_linear_102_87" x1="168.762" y1="203.146" x2="144.373" y2="203.146" gradientUnits="userSpaceOnUse">
<stop offset="0.239" stop-color="#34214F"/>
<stop offset="1" stop-color="#241337"/>
</linearGradient>
<radialGradient id="paint20_radial_102_87" cx="0" cy="0" r="1" gradientUnits="userSpaceOnUse" gradientTransform="translate(161.277 205.776) rotate(-114.463) scale(8.86081 9.25478)">
<stop offset="0.523" stop-color="#2D114D"/>
<stop offset="1" stop-color="#2B1249" stop-opacity="0"/>
</radialGradient>
<linearGradient id="paint21_linear_102_87" x1="238.139" y1="203.146" x2="213.746" y2="203.146" gradientUnits="userSpaceOnUse">
<stop offset="0.239" stop-color="#34214F"/>
<stop offset="1" stop-color="#241337"/>
</linearGradient>
<radialGradient id="paint22_radial_102_87" cx="0" cy="0" r="1" gradientUnits="userSpaceOnUse" gradientTransform="translate(230.649 205.776) rotate(-114.463) scale(8.86081 9.25478)">
<stop offset="0.523" stop-color="#2D114D"/>
<stop offset="1" stop-color="#2B1249" stop-opacity="0"/>
</radialGradient>
<linearGradient id="paint23_linear_102_87" x1="223.809" y1="196.737" x2="237.428" y2="215.549" gradientUnits="userSpaceOnUse">
<stop offset="0.083" stop-color="#615B6B"/>
<stop offset="0.391" stop-color="#615B6B" stop-opacity="0"/>
<stop offset="0.692" stop-color="#615B6B" stop-opacity="0"/>
<stop offset="0.935" stop-color="#615B6B"/>
</linearGradient>
<linearGradient id="paint24_linear_102_87" x1="154.23" y1="196.737" x2="167.854" y2="215.549" gradientUnits="userSpaceOnUse">
<stop offset="0.083" stop-color="#615B6B"/>
<stop offset="0.391" stop-color="#615B6B" stop-opacity="0"/>
<stop offset="0.692" stop-color="#615B6B" stop-opacity="0"/>
<stop offset="0.935" stop-color="#615B6B"/>
</linearGradient>
<radialGradient id="paint25_radial_102_87" cx="0" cy="0" r="1" gradientUnits="userSpaceOnUse" gradientTransform="translate(108.629 198.702) rotate(-175.784) scale(5.90039 2.79114)">
<stop offset="0.309" stop-color="#E8E8E9"/>
<stop offset="1" stop-color="#D2D2D2"/>
</radialGradient>
<radialGradient id="paint26_radial_102_87" cx="0" cy="0" r="1" gradientUnits="userSpaceOnUse" gradientTransform="translate(107.525 199.267) rotate(-158.779) scale(2.68546 1.6559)">
<stop stop-color="#CDCDCE"/>
<stop offset="1" stop-color="#CDCDCE" stop-opacity="0"/>
</radialGradient>
<linearGradient id="paint27_linear_102_87" x1="114.069" y1="204.731" x2="114.114" y2="200.974" gradientUnits="userSpaceOnUse">
<stop stop-color="#DED7FA"/>
<stop offset="1" stop-color="#DED7FA" stop-opacity="0"/>
</linearGradient>
<radialGradient id="paint28_radial_102_87" cx="0" cy="0" r="1" gradientUnits="userSpaceOnUse" gradientTransform="translate(122.184 199.337) rotate(156.796) scale(9.48088 7.54123)">
<stop offset="0.179" stop-color="#FCFBFE"/>
<stop offset="1" stop-color="#FCFBFE" stop-opacity="0"/>
</radialGradient>
<radialGradient id="paint29_radial_102_87" cx="0" cy="0" r="1" gradientUnits="userSpaceOnUse" gradientTransform="translate(103.179 201.248) rotate(162.236) scale(6.28781 4.18051)">
<stop stop-color="#FCFBFE"/>
<stop offset="1" stop-color="#FCFBFE" stop-opacity="0"/>
</radialGradient>
<radialGradient id="paint30_radial_102_87" cx="0" cy="0" r="1" gradientUnits="userSpaceOnUse" gradientTransform="translate(120.926 200.529) rotate(174.365) scale(25.0235 9.59668)">
<stop offset="0.815" stop-color="#CECCD7" stop-opacity="0"/>
<stop offset="1" stop-color="#CECCD7"/>
</radialGradient>
<radialGradient id="paint31_radial_102_87" cx="0" cy="0" r="1" gradientUnits="userSpaceOnUse" gradientTransform="translate(99.8979 205.555) rotate(-25.735) scale(5.29433 5.8338)">
<stop stop-color="#D0C9EE"/>
<stop offset="1" stop-color="#D0C9EE" stop-opacity="0"/>
</radialGradient>
<radialGradient id="paint32_radial_102_87" cx="0" cy="0" r="1" gradientUnits="userSpaceOnUse" gradientTransform="translate(81.3057 207.769) rotate(-174.923) scale(5.25865 2.78976)">
<stop offset="0.309" stop-color="#E8E8E9"/>
<stop offset="1" stop-color="#D2D2D2"/>
</radialGradient>
<radialGradient id="paint33_radial_102_87" cx="0" cy="0" r="1" gradientUnits="userSpaceOnUse" gradientTransform="translate(80.3167 208.328) rotate(-156.077) scale(2.43021 1.63)">
<stop stop-color="#CDCDCE"/>
<stop offset="1" stop-color="#CDCDCE" stop-opacity="0"/>
</radialGradient>
<linearGradient id="paint34_linear_102_87" x1="86.098" y1="213.827" x2="86.1709" y2="210.071" gradientUnits="userSpaceOnUse">
<stop stop-color="#DED7FA"/>
<stop offset="1" stop-color="#DED7FA" stop-opacity="0"/>
</linearGradient>
<radialGradient id="paint35_radial_102_87" cx="0" cy="0" r="1" gradientUnits="userSpaceOnUse" gradientTransform="translate(93.3741 208.477) rotate(154.678) scale(8.62383 7.38533)">
<stop offset="0.179" stop-color="#FCFBFE"/>
<stop offset="1" stop-color="#FCFBFE" stop-opacity="0"/>
</radialGradient>
<radialGradient id="paint36_radial_102_87" cx="0" cy="0" r="1" gradientUnits="userSpaceOnUse" gradientTransform="translate(76.4279 210.286) rotate(160.583) scale(5.67366 4.12709)">
<stop stop-color="#FCFBFE"/>
<stop offset="1" stop-color="#FCFBFE" stop-opacity="0"/>
</radialGradient>
<radialGradient id="paint37_radial_102_87" cx="0" cy="0" r="1" gradientUnits="userSpaceOnUse" gradientTransform="translate(92.2435 209.662) rotate(174.027) scale(22.326 9.5816)">
<stop offset="0.815" stop-color="#CECCD7" stop-opacity="0"/>
<stop offset="1" stop-color="#CECCD7"/>
</radialGradient>
<radialGradient id="paint38_radial_102_87" cx="0" cy="0" r="1" gradientUnits="userSpaceOnUse" gradientTransform="translate(73.4674 214.575) rotate(-28.036) scale(4.83611 5.68912)">
<stop stop-color="#D0C9EE"/>
<stop offset="1" stop-color="#D0C9EE" stop-opacity="0"/>
</radialGradient>
<clipPath id="clip0_102_87">
<rect width="32" height="32" fill="white" transform="translate(130 146.212) rotate(-0.380354)"/>
</clipPath>
<clipPath id="clip1_102_87">
<rect width="32" height="32" fill="white" transform="translate(197.474 105) rotate(59.1569)"/>
</clipPath>
<clipPath id="clip2_102_87">
<rect width="32" height="32" fill="white" transform="translate(206.229 145.23) rotate(90.4122)"/>
</clipPath>
<clipPath id="clip3_102_87">
<rect width="32" height="32" fill="white" transform="translate(191.229 145.23) rotate(90.4122)"/>
</clipPath>
<clipPath id="clip4_102_87">
<rect width="32" height="32" fill="white" transform="translate(187.949 168.37) rotate(148.796)"/>
</clipPath>
<clipPath id="clip5_102_87">
<rect width="32" height="32" fill="white" transform="translate(164.431 120.612) rotate(111.277)"/>
</clipPath>
<clipPath id="clip6_102_87">
<rect width="32" height="32" fill="white" transform="translate(176 128.212) rotate(-0.380354)"/>
</clipPath>
<clipPath id="clip7_102_87">
<rect width="32" height="32" fill="white" transform="translate(148 109.212) rotate(-0.380354)"/>
</clipPath>
<clipPath id="clip8_102_87">
<rect width="32" height="32" fill="white" transform="translate(129 132.212) rotate(-0.380354)"/>
</clipPath>
</defs>
</svg>
