<svg width="24" height="28" viewBox="0 0 24 28" fill="none" xmlns="http://www.w3.org/2000/svg">
<path d="M11.35 0.1425C11.67 -0.0475 12.06 -0.0475 12.37 0.1425L23.29 6.7825C23.55 6.9425 23.71 7.2325 23.71 7.5325L11.86 15.4995L0 7.6315V7.5315C0 7.2315 0.16 6.9415 0.42 6.7915L11.35 0.1425Z" fill="#F3C07B"/>
<path d="M11.856 14.2455L23.216 7.34549C23.2658 7.31578 23.3226 7.29981 23.3806 7.29921C23.4386 7.29861 23.4957 7.31339 23.5461 7.34206C23.5965 7.37072 23.6384 7.41224 23.6676 7.46238C23.6967 7.51252 23.7121 7.56949 23.712 7.62749V19.9675C23.7124 20.2647 23.6363 20.557 23.4909 20.8162C23.3455 21.0755 23.1358 21.2929 22.882 21.4475L12.242 27.9075C12.2147 27.9219 12.1854 27.932 12.155 27.9375C12.128 27.945 12.1 27.9487 12.072 27.9485C11.8426 28.0121 11.5974 27.9822 11.39 27.8655H11.396L9 16.9995L11.856 14.2455Z" fill="#FFCE7C"/>
<path d="M11.86 27.6215V14.2515L0.510004 7.35153C0.45989 7.31931 0.402008 7.30121 0.342466 7.29915C0.282924 7.29709 0.223928 7.31113 0.171703 7.3398C0.119478 7.36847 0.0759609 7.41071 0.045741 7.46206C0.0155212 7.5134 -0.000280317 7.57195 3.76393e-06 7.63153V19.9715C3.76393e-06 20.5815 0.320004 21.1415 0.830004 21.4515L11.4 27.8715C11.4451 27.9 11.497 27.9159 11.5503 27.9176C11.6036 27.9193 11.6564 27.9068 11.7033 27.8814C11.7501 27.8559 11.7894 27.8184 11.8169 27.7727C11.8445 27.727 11.8593 27.6749 11.86 27.6215Z" fill="#E19747"/>
<path d="M10.5 24.7815V22.8215C10.5 22.5915 10.38 22.3815 10.19 22.2615L7.39002 20.5715C7.20002 20.4615 6.96002 20.5915 6.96002 20.8115V22.7715C6.96002 23.0015 7.08002 23.2115 7.27002 23.3315L10.07 25.0215C10.26 25.1315 10.5 25.0015 10.5 24.7815Z" fill="#D3D3D3"/>
<path d="M7.75998 14.5525V9.99246L4.47998 9.77246V12.9325C4.47998 13.0325 4.52998 13.1325 4.61998 13.1925L7.29998 14.8225C7.49998 14.9325 7.75998 14.7925 7.75998 14.5525Z" fill="#8C5543"/>
<path d="M16.34 2.5625L4.47998 9.7725L7.75998 11.7725L19.62 4.5725L16.34 2.5625Z" fill="#A56953"/>
</svg>
