<svg width="23" height="28" viewBox="0 0 23 28" fill="none" xmlns="http://www.w3.org/2000/svg">
<g filter="url(#filter0_iii_1_16)">
<path d="M22.303 0.301116C22.38 0.227116 22.498 0.206116 22.58 0.274116C22.753 0.416116 22.922 0.667116 22.922 1.06612V23.6091C22.922 24.7363 22.4742 25.8173 21.6772 26.6143C20.8802 27.4113 19.7992 27.8591 18.672 27.8591H3.89V27.0311H3V0.864116C3.01694 0.739448 3.05899 0.619514 3.12362 0.51157C3.18825 0.403626 3.27411 0.309917 3.376 0.236116C3.456 0.179116 3.564 0.200116 3.636 0.268116L4.568 1.14112C4.64321 1.21152 4.74269 1.2502 4.8457 1.24908C4.94872 1.24796 5.04734 1.20714 5.121 1.13512L6.163 0.118116C6.23896 0.0436348 6.34072 0.00133511 6.44709 3.10674e-05C6.55347 -0.00127297 6.65624 0.0385193 6.734 0.111116L7.834 1.14112C7.90921 1.21152 8.00869 1.2502 8.1117 1.24908C8.21472 1.24796 8.31333 1.20714 8.387 1.13512L9.429 0.118116C9.50496 0.0436348 9.60672 0.00133511 9.7131 3.10674e-05C9.81947 -0.00127297 9.92224 0.0385193 10 0.111116L11.1 1.14112C11.1752 1.21123 11.2744 1.24972 11.3772 1.2486C11.48 1.24748 11.5784 1.20685 11.652 1.13512L12.695 0.118116C12.7709 0.0439275 12.8725 0.00181201 12.9786 0.00050862C13.0847 -0.000794772 13.1873 0.038814 13.265 0.111116L14.365 1.14112C14.4402 1.21152 14.5397 1.2502 14.6427 1.24908C14.7457 1.24796 14.8443 1.20714 14.918 1.13512L15.96 0.118116C16.036 0.0436348 16.1377 0.00133511 16.2441 3.10674e-05C16.3505 -0.00127297 16.4532 0.0385193 16.531 0.111116L17.631 1.14112C17.7062 1.21152 17.8057 1.2502 17.9087 1.24908C18.0117 1.24796 18.1103 1.20714 18.184 1.13512L19.226 0.118116C19.302 0.0436348 19.4037 0.00133511 19.5101 3.10674e-05C19.6165 -0.00127297 19.7192 0.0385193 19.797 0.111116L20.897 1.14112C20.9722 1.21123 21.0714 1.24972 21.1742 1.2486C21.277 1.24748 21.3754 1.20685 21.449 1.13512L22.303 0.301116Z" fill="url(#paint0_linear_1_16)"/>
<path d="M22.303 0.301116C22.38 0.227116 22.498 0.206116 22.58 0.274116C22.753 0.416116 22.922 0.667116 22.922 1.06612V23.6091C22.922 24.7363 22.4742 25.8173 21.6772 26.6143C20.8802 27.4113 19.7992 27.8591 18.672 27.8591H3.89V27.0311H3V0.864116C3.01694 0.739448 3.05899 0.619514 3.12362 0.51157C3.18825 0.403626 3.27411 0.309917 3.376 0.236116C3.456 0.179116 3.564 0.200116 3.636 0.268116L4.568 1.14112C4.64321 1.21152 4.74269 1.2502 4.8457 1.24908C4.94872 1.24796 5.04734 1.20714 5.121 1.13512L6.163 0.118116C6.23896 0.0436348 6.34072 0.00133511 6.44709 3.10674e-05C6.55347 -0.00127297 6.65624 0.0385193 6.734 0.111116L7.834 1.14112C7.90921 1.21152 8.00869 1.2502 8.1117 1.24908C8.21472 1.24796 8.31333 1.20714 8.387 1.13512L9.429 0.118116C9.50496 0.0436348 9.60672 0.00133511 9.7131 3.10674e-05C9.81947 -0.00127297 9.92224 0.0385193 10 0.111116L11.1 1.14112C11.1752 1.21123 11.2744 1.24972 11.3772 1.2486C11.48 1.24748 11.5784 1.20685 11.652 1.13512L12.695 0.118116C12.7709 0.0439275 12.8725 0.00181201 12.9786 0.00050862C13.0847 -0.000794772 13.1873 0.038814 13.265 0.111116L14.365 1.14112C14.4402 1.21152 14.5397 1.2502 14.6427 1.24908C14.7457 1.24796 14.8443 1.20714 14.918 1.13512L15.96 0.118116C16.036 0.0436348 16.1377 0.00133511 16.2441 3.10674e-05C16.3505 -0.00127297 16.4532 0.0385193 16.531 0.111116L17.631 1.14112C17.7062 1.21152 17.8057 1.2502 17.9087 1.24908C18.0117 1.24796 18.1103 1.20714 18.184 1.13512L19.226 0.118116C19.302 0.0436348 19.4037 0.00133511 19.5101 3.10674e-05C19.6165 -0.00127297 19.7192 0.0385193 19.797 0.111116L20.897 1.14112C20.9722 1.21123 21.0714 1.24972 21.1742 1.2486C21.277 1.24748 21.3754 1.20685 21.449 1.13512L22.303 0.301116Z" fill="url(#paint1_radial_1_16)"/>
</g>
<g filter="url(#filter1_ii_1_16)">
<path d="M15.091 23.8911C15.091 23.6259 14.9856 23.3715 14.7981 23.184C14.6106 22.9965 14.3562 22.8911 14.091 22.8911H0.994C0.730548 22.8911 0.477872 22.9957 0.291489 23.1819C0.105107 23.3681 0.000265042 23.6207 0 23.8841C0 24.4061 0.102816 24.923 0.302579 25.4053C0.502341 25.8875 0.795138 26.3257 1.16425 26.6949C1.53336 27.064 1.97156 27.3568 2.45383 27.5565C2.9361 27.7563 3.453 27.8591 3.975 27.8591H18.125C15.729 27.6471 15.115 25.3111 15.091 23.9791V23.8911Z" fill="url(#paint2_linear_1_16)"/>
<path d="M15.091 23.8911C15.091 23.6259 14.9856 23.3715 14.7981 23.184C14.6106 22.9965 14.3562 22.8911 14.091 22.8911H0.994C0.730548 22.8911 0.477872 22.9957 0.291489 23.1819C0.105107 23.3681 0.000265042 23.6207 0 23.8841C0 24.4061 0.102816 24.923 0.302579 25.4053C0.502341 25.8875 0.795138 26.3257 1.16425 26.6949C1.53336 27.064 1.97156 27.3568 2.45383 27.5565C2.9361 27.7563 3.453 27.8591 3.975 27.8591H18.125C15.729 27.6471 15.115 25.3111 15.091 23.9791V23.8911Z" fill="url(#paint3_linear_1_16)"/>
</g>
<path d="M18.976 3.96912H6.977C6.43742 3.96912 6 4.40631 6 4.94562C6 5.48492 6.43742 5.92212 6.977 5.92212H18.976C19.5156 5.92212 19.953 5.48492 19.953 4.94562C19.953 4.40631 19.5156 3.96912 18.976 3.96912Z" fill="#97939D"/>
<path d="M14.422 7.93713H6.516C6.23102 7.93713 6 8.16793 6 8.45263C6 8.73734 6.23102 8.96813 6.516 8.96813H14.422C14.707 8.96813 14.938 8.73734 14.938 8.45263C14.938 8.16793 14.707 7.93713 14.422 7.93713Z" fill="#97939D"/>
<path d="M14.422 10.9061H6.516C6.23102 10.9061 6 11.1369 6 11.4216C6 11.7063 6.23102 11.9371 6.516 11.9371H14.422C14.707 11.9371 14.938 11.7063 14.938 11.4216C14.938 11.1369 14.707 10.9061 14.422 10.9061Z" fill="#97939D"/>
<path d="M14.422 13.9302H6.516C6.23102 13.9302 6 14.161 6 14.4457C6 14.7304 6.23102 14.9612 6.516 14.9612H14.422C14.707 14.9612 14.938 14.7304 14.938 14.4457C14.938 14.161 14.707 13.9302 14.422 13.9302Z" fill="#97939D"/>
<path d="M14.422 16.9531H6.516C6.23102 16.9531 6 17.1839 6 17.4686C6 17.7533 6.23102 17.9841 6.516 17.9841H14.422C14.707 17.9841 14.938 17.7533 14.938 17.4686C14.938 17.1839 14.707 16.9531 14.422 16.9531Z" fill="#97939D"/>
<path d="M14.422 19.9761H6.516C6.23102 19.9761 6 20.2069 6 20.4916C6 20.7763 6.23102 21.0071 6.516 21.0071H14.422C14.707 21.0071 14.938 20.7763 14.938 20.4916C14.938 20.2069 14.707 19.9761 14.422 19.9761Z" fill="#97929F"/>
<path d="M19.437 10.9061H16.485C16.2 10.9061 15.969 11.1369 15.969 11.4216C15.969 11.7063 16.2 11.9371 16.485 11.9371H19.437C19.722 11.9371 19.953 11.7063 19.953 11.4216C19.953 11.1369 19.722 10.9061 19.437 10.9061Z" fill="#97939D"/>
<path d="M19.437 7.93713H16.485C16.2 7.93713 15.969 8.16793 15.969 8.45263C15.969 8.73734 16.2 8.96813 16.485 8.96813H19.437C19.722 8.96813 19.953 8.73734 19.953 8.45263C19.953 8.16793 19.722 7.93713 19.437 7.93713Z" fill="#97939D"/>
<path d="M19.437 13.9302H16.485C16.2 13.9302 15.969 14.161 15.969 14.4457C15.969 14.7304 16.2 14.9612 16.485 14.9612H19.437C19.722 14.9612 19.953 14.7304 19.953 14.4457C19.953 14.161 19.722 13.9302 19.437 13.9302Z" fill="#97939D"/>
<path d="M19.437 16.9531H16.485C16.2 16.9531 15.969 17.1839 15.969 17.4686C15.969 17.7533 16.2 17.9841 16.485 17.9841H19.437C19.722 17.9841 19.953 17.7533 19.953 17.4686C19.953 17.1839 19.722 16.9531 19.437 16.9531Z" fill="#97939D"/>
<path d="M19.437 19.9761H16.485C16.2 19.9761 15.969 20.2069 15.969 20.4916C15.969 20.7763 16.2 21.0071 16.485 21.0071H19.437C19.722 21.0071 19.953 20.7763 19.953 20.4916C19.953 20.2069 19.722 19.9761 19.437 19.9761Z" fill="#9893A0"/>
<defs>
<filter id="filter0_iii_1_16" x="2.85" y="-0.15" width="20.2221" height="28.0091" filterUnits="userSpaceOnUse" color-interpolation-filters="sRGB">
<feFlood flood-opacity="0" result="BackgroundImageFix"/>
<feBlend mode="normal" in="SourceGraphic" in2="BackgroundImageFix" result="shape"/>
<feColorMatrix in="SourceAlpha" type="matrix" values="0 0 0 0 0 0 0 0 0 0 0 0 0 0 0 0 0 0 127 0" result="hardAlpha"/>
<feOffset dx="-0.15" dy="-0.15"/>
<feGaussianBlur stdDeviation="0.175"/>
<feComposite in2="hardAlpha" operator="arithmetic" k2="-1" k3="1"/>
<feColorMatrix type="matrix" values="0 0 0 0 1 0 0 0 0 1 0 0 0 0 1 0 0 0 1 0"/>
<feBlend mode="normal" in2="shape" result="effect1_innerShadow_1_16"/>
<feColorMatrix in="SourceAlpha" type="matrix" values="0 0 0 0 0 0 0 0 0 0 0 0 0 0 0 0 0 0 127 0" result="hardAlpha"/>
<feOffset dx="-0.15"/>
<feGaussianBlur stdDeviation="0.125"/>
<feComposite in2="hardAlpha" operator="arithmetic" k2="-1" k3="1"/>
<feColorMatrix type="matrix" values="0 0 0 0 1 0 0 0 0 1 0 0 0 0 1 0 0 0 1 0"/>
<feBlend mode="normal" in2="effect1_innerShadow_1_16" result="effect2_innerShadow_1_16"/>
<feColorMatrix in="SourceAlpha" type="matrix" values="0 0 0 0 0 0 0 0 0 0 0 0 0 0 0 0 0 0 127 0" result="hardAlpha"/>
<feOffset dx="0.15"/>
<feGaussianBlur stdDeviation="0.175"/>
<feComposite in2="hardAlpha" operator="arithmetic" k2="-1" k3="1"/>
<feColorMatrix type="matrix" values="0 0 0 0 0.733333 0 0 0 0 0.713726 0 0 0 0 0.764706 0 0 0 1 0"/>
<feBlend mode="normal" in2="effect2_innerShadow_1_16" result="effect3_innerShadow_1_16"/>
</filter>
<filter id="filter1_ii_1_16" x="-0.15" y="22.8911" width="18.375" height="4.96802" filterUnits="userSpaceOnUse" color-interpolation-filters="sRGB">
<feFlood flood-opacity="0" result="BackgroundImageFix"/>
<feBlend mode="normal" in="SourceGraphic" in2="BackgroundImageFix" result="shape"/>
<feColorMatrix in="SourceAlpha" type="matrix" values="0 0 0 0 0 0 0 0 0 0 0 0 0 0 0 0 0 0 127 0" result="hardAlpha"/>
<feOffset dx="-0.15"/>
<feGaussianBlur stdDeviation="0.125"/>
<feComposite in2="hardAlpha" operator="arithmetic" k2="-1" k3="1"/>
<feColorMatrix type="matrix" values="0 0 0 0 1 0 0 0 0 1 0 0 0 0 1 0 0 0 1 0"/>
<feBlend mode="normal" in2="shape" result="effect1_innerShadow_1_16"/>
<feColorMatrix in="SourceAlpha" type="matrix" values="0 0 0 0 0 0 0 0 0 0 0 0 0 0 0 0 0 0 127 0" result="hardAlpha"/>
<feOffset dx="0.1"/>
<feGaussianBlur stdDeviation="0.2"/>
<feComposite in2="hardAlpha" operator="arithmetic" k2="-1" k3="1"/>
<feColorMatrix type="matrix" values="0 0 0 0 0.666667 0 0 0 0 0.6 0 0 0 0 0.74902 0 0 0 1 0"/>
<feBlend mode="normal" in2="effect1_innerShadow_1_16" result="effect2_innerShadow_1_16"/>
</filter>
<linearGradient id="paint0_linear_1_16" x1="4.953" y1="14.6091" x2="22.922" y2="14.6091" gradientUnits="userSpaceOnUse">
<stop stop-color="#DFD8E8"/>
<stop offset="1" stop-color="#E0DBEA"/>
</linearGradient>
<radialGradient id="paint1_radial_1_16" cx="0" cy="0" r="1" gradientUnits="userSpaceOnUse" gradientTransform="translate(15.391 29.2961) rotate(-60.0013) scale(7.00028 10.9764)">
<stop stop-color="#F9F3FE"/>
<stop offset="1" stop-color="#F9F3FE" stop-opacity="0"/>
</radialGradient>
<linearGradient id="paint2_linear_1_16" x1="9.062" y1="22.8911" x2="9.062" y2="27.8591" gradientUnits="userSpaceOnUse">
<stop stop-color="#DCD4E8"/>
<stop offset="1" stop-color="#C9BADD"/>
</linearGradient>
<linearGradient id="paint3_linear_1_16" x1="11.703" y1="27.8591" x2="11.703" y2="25.3751" gradientUnits="userSpaceOnUse">
<stop stop-color="#A58BC5"/>
<stop offset="1" stop-color="#C7B7DD" stop-opacity="0"/>
</linearGradient>
</defs>
</svg>
