<svg width="131" height="108" viewBox="0 0 131 108" fill="none" xmlns="http://www.w3.org/2000/svg">
<g filter="url(#filter0_ii_22_10)">
<path d="M130.251 57.5461L114.485 27.5567C113.128 24.9835 110.461 23.3928 107.561 23.3928H75.5593C75.3732 23.3928 75.1947 23.4667 75.0631 23.5983C74.9315 23.7299 74.8576 23.9084 74.8576 24.0945V69.8834L131 61.2421C131 59.9789 130.766 58.7157 130.251 57.5461Z" fill="url(#paint0_linear_22_10)"/>
</g>
<path d="M130.251 57.5461L114.485 27.5567C113.128 24.9835 110.461 23.3928 107.561 23.3928H75.5593C75.3732 23.3928 75.1947 23.4667 75.0631 23.5983C74.9315 23.7299 74.8576 23.9084 74.8576 24.0945V69.8834L131 61.2421C131 59.9789 130.766 58.7157 130.251 57.5461Z" fill="url(#paint1_linear_22_10)"/>
<path d="M130.251 57.5461L114.485 27.5567C113.128 24.9835 110.461 23.3928 107.561 23.3928H75.5593C75.3732 23.3928 75.1947 23.4667 75.0631 23.5983C74.9315 23.7299 74.8576 23.9084 74.8576 24.0945V69.8834L131 61.2421C131 59.9789 130.766 58.7157 130.251 57.5461Z" fill="url(#paint2_linear_22_10)"/>
<g filter="url(#filter1_ii_22_10)">
<path d="M14.0367 0H60.8221C68.5884 0 74.8577 6.26925 74.8577 14.0356V66.6739H0.001091V14.0403C0.001091 6.27392 6.27032 0.00468043 14.0367 0.00468043" fill="url(#paint3_linear_22_10)"/>
</g>
<path d="M14.0367 0H60.8221C68.5884 0 74.8577 6.26925 74.8577 14.0356V66.6739H0.001091V14.0403C0.001091 6.27392 6.27032 0.00468043 14.0367 0.00468043" fill="url(#paint4_linear_22_10)"/>
<path d="M14.0367 0H60.8221C68.5884 0 74.8577 6.26925 74.8577 14.0356V66.6739H0.001091V14.0403C0.001091 6.27392 6.27032 0.00468043 14.0367 0.00468043" fill="url(#paint5_linear_22_10)"/>
<path d="M129.55 56.1426H98.7185C95.8646 56.1426 93.5721 53.8501 93.5721 50.9962V33.2646C93.5721 30.4106 95.8646 28.1182 98.7185 28.1182H114.719L129.55 56.1426Z" fill="url(#paint6_linear_22_10)"/>
<path d="M129.55 56.1426H98.7185C95.8646 56.1426 93.5721 53.8501 93.5721 50.9962V33.2646C93.5721 30.4106 95.8646 28.1182 98.7185 28.1182H114.719L129.55 56.1426Z" fill="url(#paint7_linear_22_10)"/>
<path d="M129.55 56.1426H98.7185C95.8646 56.1426 93.5721 53.8501 93.5721 50.9962V33.2646C93.5721 30.4106 95.8646 28.1182 98.7185 28.1182H114.719L129.55 56.1426Z" fill="url(#paint8_linear_22_10)"/>
<path d="M74.8577 93.5946V60.798H0.001091V85.1732C0.001091 89.8049 3.7907 93.5946 8.42245 93.5946H74.8577Z" fill="url(#paint9_linear_22_10)"/>
<path d="M74.8577 93.5946V60.798H0.001091V85.1732C0.001091 89.8049 3.7907 93.5946 8.42245 93.5946H74.8577Z" fill="url(#paint10_linear_22_10)"/>
<path d="M74.8577 93.5946V60.798H0.001091V85.1732C0.001091 89.8049 3.7907 93.5946 8.42245 93.5946H74.8577Z" fill="url(#paint11_linear_22_10)"/>
<g filter="url(#filter2_ii_22_10)">
<path d="M30.4104 98.249C28.5492 98.249 26.7642 97.5096 25.4481 96.1935C24.132 94.8774 23.3926 93.0924 23.3926 91.2312C23.3926 89.3699 24.132 87.5849 25.4481 86.2689C26.7642 84.9528 28.5492 84.2134 30.4104 84.2134C32.2717 84.2134 34.0567 84.9528 35.3728 86.2689C36.6889 87.5849 37.4282 89.3699 37.4282 91.2312C37.4282 93.0924 36.6889 94.8774 35.3728 96.1935C34.0567 97.5096 32.2717 98.249 30.4104 98.249Z" fill="#D9C3F0"/>
</g>
<path d="M-7.24792e-05 70.1778H2.3392C6.31595 70.1778 9.54414 73.4996 9.357 77.5231C9.16986 81.3127 5.89489 84.2134 2.10527 84.2134H-7.24792e-05V70.1778Z" fill="url(#paint12_linear_22_10)"/>
<path d="M74.8576 60.8213H131V85.29C131 89.875 127.257 93.6178 122.672 93.6178H74.8576V60.8213Z" fill="url(#paint13_linear_22_10)"/>
<path d="M74.8576 60.8213H131V85.29C131 89.875 127.257 93.6178 122.672 93.6178H74.8576V60.8213Z" fill="url(#paint14_linear_22_10)"/>
<path d="M74.8576 60.8213H131V85.29C131 89.875 127.257 93.6178 122.672 93.6178H74.8576V60.8213Z" fill="url(#paint15_linear_22_10)"/>
<path d="M74.8576 60.8213H131V85.29C131 89.875 127.257 93.6178 122.672 93.6178H74.8576V60.8213Z" fill="url(#paint16_linear_22_10)"/>
<path fill-rule="evenodd" clip-rule="evenodd" d="M81.4967 93.6173C81.3938 92.8375 81.3423 92.0421 81.3423 91.2312C81.3442 88.7275 81.8596 86.2508 82.8566 83.9542C83.8537 81.6576 85.3112 79.59 87.1391 77.879C88.967 76.1681 91.1264 74.8503 93.4838 74.0071C95.8413 73.1639 98.3466 72.8132 100.845 72.9767C103.343 73.1402 105.782 73.8144 108.009 74.9577C110.236 76.1009 112.206 77.6889 113.795 79.6235C115.384 81.558 116.56 83.798 117.249 86.205C117.938 88.6119 118.127 91.1347 117.802 93.6173H81.4967Z" fill="url(#paint17_linear_22_10)"/>
<path fill-rule="evenodd" clip-rule="evenodd" d="M12.2582 93.6173C12.1553 92.8375 12.1038 92.0421 12.1038 91.2312C12.1056 88.7275 12.621 86.2508 13.6181 83.9542C14.6151 81.6576 16.0727 79.59 17.9006 77.879C19.7285 76.1681 21.8879 74.8503 24.2453 74.0071C26.6027 73.1639 29.1081 72.8132 31.6064 72.9767C34.1048 73.1402 36.543 73.8144 38.7705 74.9577C40.9979 76.1009 42.9671 77.6889 44.5565 79.6235C46.1458 81.558 47.3214 83.798 48.0107 86.205C48.6999 88.6119 48.8881 91.1347 48.5636 93.6173H12.2582Z" fill="url(#paint18_linear_22_10)"/>
<g filter="url(#filter3_ii_22_10)">
<path d="M30.2767 107.47C25.9698 107.47 21.8393 105.759 18.7938 102.713C15.7484 99.668 14.0375 95.5375 14.0375 91.2306C14.0375 86.9237 15.7484 82.7932 18.7938 79.7477C21.8393 76.7023 25.9698 74.9914 30.2767 74.9914C34.5836 74.9914 38.7141 76.7023 41.7595 79.7477C44.805 82.7932 46.5159 86.9237 46.5159 91.2306C46.5159 95.5375 44.805 99.668 41.7595 102.713C38.7141 105.759 34.5836 107.47 30.2767 107.47Z" fill="url(#paint19_linear_22_10)"/>
<path d="M30.2767 107.47C25.9698 107.47 21.8393 105.759 18.7938 102.713C15.7484 99.668 14.0375 95.5375 14.0375 91.2306C14.0375 86.9237 15.7484 82.7932 18.7938 79.7477C21.8393 76.7023 25.9698 74.9914 30.2767 74.9914C34.5836 74.9914 38.7141 76.7023 41.7595 79.7477C44.805 82.7932 46.5159 86.9237 46.5159 91.2306C46.5159 95.5375 44.805 99.668 41.7595 102.713C38.7141 105.759 34.5836 107.47 30.2767 107.47Z" fill="url(#paint20_radial_22_10)"/>
</g>
<g filter="url(#filter4_ii_22_10)">
<path d="M30.2619 97.2248C28.6724 97.2248 27.148 96.5933 26.0241 95.4694C24.9001 94.3454 24.2687 92.821 24.2687 91.2315C24.2687 89.6421 24.9001 88.1177 26.0241 86.9937C27.148 85.8698 28.6724 85.2383 30.2619 85.2383C31.8514 85.2383 33.3758 85.8698 34.4998 86.9937C35.6237 88.1177 36.2551 89.6421 36.2551 91.2315C36.2551 92.821 35.6237 94.3454 34.4998 95.4694C33.3758 96.5933 31.8514 97.2248 30.2619 97.2248Z" fill="#D9C3F0"/>
</g>
<path d="M126.743 84.2138H131V65.4996H126.743C123.935 65.4996 121.643 67.7921 121.643 70.5992V79.1142C121.643 81.9213 123.935 84.2138 126.743 84.2138Z" fill="#F8DA4B"/>
<g filter="url(#filter5_ii_22_10)">
<path d="M99.6492 107.47C95.3423 107.47 91.2118 105.759 88.1664 102.713C85.1209 99.668 83.41 95.5375 83.41 91.2306C83.41 86.9237 85.1209 82.7932 88.1664 79.7477C91.2118 76.7023 95.3423 74.9914 99.6492 74.9914C103.956 74.9914 108.087 76.7023 111.132 79.7477C114.178 82.7932 115.888 86.9237 115.888 91.2306C115.888 95.5375 114.178 99.668 111.132 102.713C108.087 105.759 103.956 107.47 99.6492 107.47Z" fill="url(#paint21_linear_22_10)"/>
<path d="M99.6492 107.47C95.3423 107.47 91.2118 105.759 88.1664 102.713C85.1209 99.668 83.41 95.5375 83.41 91.2306C83.41 86.9237 85.1209 82.7932 88.1664 79.7477C91.2118 76.7023 95.3423 74.9914 99.6492 74.9914C103.956 74.9914 108.087 76.7023 111.132 79.7477C114.178 82.7932 115.888 86.9237 115.888 91.2306C115.888 95.5375 114.178 99.668 111.132 102.713C108.087 105.759 103.956 107.47 99.6492 107.47Z" fill="url(#paint22_radial_22_10)"/>
</g>
<g filter="url(#filter6_ii_22_10)">
<path d="M99.6396 97.2248C98.0501 97.2248 96.5257 96.5933 95.4018 95.4694C94.2778 94.3454 93.6464 92.821 93.6464 91.2315C93.6464 89.6421 94.2778 88.1177 95.4018 86.9937C96.5257 85.8698 98.0501 85.2383 99.6396 85.2383C101.229 85.2383 102.754 85.8698 103.877 86.9937C105.001 88.1177 105.633 89.6421 105.633 91.2315C105.633 92.821 105.001 94.3454 103.877 95.4694C102.754 96.5933 101.229 97.2248 99.6396 97.2248Z" fill="#D9C3F0"/>
</g>
<g filter="url(#filter7_f_22_10)">
<path d="M98.9147 100.85C92.7211 100.85 87.7003 95.8293 87.7003 89.6357C87.7003 83.4421 92.7211 78.4213 98.9147 78.4213C105.108 78.4213 110.129 83.4421 110.129 89.6357C110.129 95.8293 105.108 100.85 98.9147 100.85Z" stroke="url(#paint23_linear_22_10)" stroke-width="0.85"/>
</g>
<g filter="url(#filter8_f_22_10)">
<path d="M29.3397 100.85C23.1462 100.85 18.1253 95.8293 18.1253 89.6357C18.1253 83.4421 23.1462 78.4213 29.3397 78.4213C35.5333 78.4213 40.5542 83.4421 40.5542 89.6357C40.5542 95.8293 35.5333 100.85 29.3397 100.85Z" stroke="url(#paint24_linear_22_10)" stroke-width="0.85"/>
</g>
<defs>
<filter id="filter0_ii_22_10" x="74.3577" y="23.3928" width="57.1423" height="46.6906" filterUnits="userSpaceOnUse" color-interpolation-filters="sRGB">
<feFlood flood-opacity="0" result="BackgroundImageFix"/>
<feBlend mode="normal" in="SourceGraphic" in2="BackgroundImageFix" result="shape"/>
<feColorMatrix in="SourceAlpha" type="matrix" values="0 0 0 0 0 0 0 0 0 0 0 0 0 0 0 0 0 0 127 0" result="hardAlpha"/>
<feOffset dx="-1" dy="0.2"/>
<feGaussianBlur stdDeviation="0.25"/>
<feComposite in2="hardAlpha" operator="arithmetic" k2="-1" k3="1"/>
<feColorMatrix type="matrix" values="0 0 0 0 1 0 0 0 0 0.945098 0 0 0 0 0.996078 0 0 0 1 0"/>
<feBlend mode="normal" in2="shape" result="effect1_innerShadow_22_10"/>
<feColorMatrix in="SourceAlpha" type="matrix" values="0 0 0 0 0 0 0 0 0 0 0 0 0 0 0 0 0 0 127 0" result="hardAlpha"/>
<feOffset dx="0.5"/>
<feGaussianBlur stdDeviation="0.25"/>
<feComposite in2="hardAlpha" operator="arithmetic" k2="-1" k3="1"/>
<feColorMatrix type="matrix" values="0 0 0 0 0.678431 0 0 0 0 0.639216 0 0 0 0 0.643137 0 0 0 1 0"/>
<feBlend mode="normal" in2="effect1_innerShadow_22_10" result="effect2_innerShadow_22_10"/>
</filter>
<filter id="filter1_ii_22_10" x="-0.499023" y="0" width="75.8567" height="66.6739" filterUnits="userSpaceOnUse" color-interpolation-filters="sRGB">
<feFlood flood-opacity="0" result="BackgroundImageFix"/>
<feBlend mode="normal" in="SourceGraphic" in2="BackgroundImageFix" result="shape"/>
<feColorMatrix in="SourceAlpha" type="matrix" values="0 0 0 0 0 0 0 0 0 0 0 0 0 0 0 0 0 0 127 0" result="hardAlpha"/>
<feOffset dx="0.8"/>
<feGaussianBlur stdDeviation="0.25"/>
<feComposite in2="hardAlpha" operator="arithmetic" k2="-1" k3="1"/>
<feColorMatrix type="matrix" values="0 0 0 0 0.784314 0 0 0 0 0.615686 0 0 0 0 0.258824 0 0 0 1 0"/>
<feBlend mode="normal" in2="shape" result="effect1_innerShadow_22_10"/>
<feColorMatrix in="SourceAlpha" type="matrix" values="0 0 0 0 0 0 0 0 0 0 0 0 0 0 0 0 0 0 127 0" result="hardAlpha"/>
<feOffset dx="-1"/>
<feGaussianBlur stdDeviation="0.25"/>
<feComposite in2="hardAlpha" operator="arithmetic" k2="-1" k3="1"/>
<feColorMatrix type="matrix" values="0 0 0 0 0.909804 0 0 0 0 0.756863 0 0 0 0 0.27451 0 0 0 1 0"/>
<feBlend mode="normal" in2="effect1_innerShadow_22_10" result="effect2_innerShadow_22_10"/>
</filter>
<filter id="filter2_ii_22_10" x="23.3426" y="84.1634" width="14.1356" height="14.1356" filterUnits="userSpaceOnUse" color-interpolation-filters="sRGB">
<feFlood flood-opacity="0" result="BackgroundImageFix"/>
<feBlend mode="normal" in="SourceGraphic" in2="BackgroundImageFix" result="shape"/>
<feColorMatrix in="SourceAlpha" type="matrix" values="0 0 0 0 0 0 0 0 0 0 0 0 0 0 0 0 0 0 127 0" result="hardAlpha"/>
<feOffset dx="0.05" dy="-0.05"/>
<feGaussianBlur stdDeviation="0.05"/>
<feComposite in2="hardAlpha" operator="arithmetic" k2="-1" k3="1"/>
<feColorMatrix type="matrix" values="0 0 0 0 0.478431 0 0 0 0 0.364706 0 0 0 0 0.584314 0 0 0 1 0"/>
<feBlend mode="normal" in2="shape" result="effect1_innerShadow_22_10"/>
<feColorMatrix in="SourceAlpha" type="matrix" values="0 0 0 0 0 0 0 0 0 0 0 0 0 0 0 0 0 0 127 0" result="hardAlpha"/>
<feOffset dx="-0.05" dy="0.05"/>
<feGaussianBlur stdDeviation="0.05"/>
<feComposite in2="hardAlpha" operator="arithmetic" k2="-1" k3="1"/>
<feColorMatrix type="matrix" values="0 0 0 0 0.807843 0 0 0 0 0.764706 0 0 0 0 0.858824 0 0 0 1 0"/>
<feBlend mode="normal" in2="effect1_innerShadow_22_10" result="effect2_innerShadow_22_10"/>
</filter>
<filter id="filter3_ii_22_10" x="14.0374" y="74.9914" width="32.4785" height="32.6284" filterUnits="userSpaceOnUse" color-interpolation-filters="sRGB">
<feFlood flood-opacity="0" result="BackgroundImageFix"/>
<feBlend mode="normal" in="SourceGraphic" in2="BackgroundImageFix" result="shape"/>
<feColorMatrix in="SourceAlpha" type="matrix" values="0 0 0 0 0 0 0 0 0 0 0 0 0 0 0 0 0 0 127 0" result="hardAlpha"/>
<feOffset/>
<feGaussianBlur stdDeviation="0.5"/>
<feComposite in2="hardAlpha" operator="arithmetic" k2="-1" k3="1"/>
<feColorMatrix type="matrix" values="0 0 0 0 0.145098 0 0 0 0 0.0823529 0 0 0 0 0.215686 0 0 0 1 0"/>
<feBlend mode="normal" in2="shape" result="effect1_innerShadow_22_10"/>
<feColorMatrix in="SourceAlpha" type="matrix" values="0 0 0 0 0 0 0 0 0 0 0 0 0 0 0 0 0 0 127 0" result="hardAlpha"/>
<feOffset dy="0.15"/>
<feGaussianBlur stdDeviation="0.125"/>
<feComposite in2="hardAlpha" operator="arithmetic" k2="-1" k3="1"/>
<feColorMatrix type="matrix" values="0 0 0 0 0.207843 0 0 0 0 0.0313726 0 0 0 0 0.235294 0 0 0 1 0"/>
<feBlend mode="normal" in2="effect1_innerShadow_22_10" result="effect2_innerShadow_22_10"/>
</filter>
<filter id="filter4_ii_22_10" x="24.2188" y="85.1883" width="12.0863" height="12.0864" filterUnits="userSpaceOnUse" color-interpolation-filters="sRGB">
<feFlood flood-opacity="0" result="BackgroundImageFix"/>
<feBlend mode="normal" in="SourceGraphic" in2="BackgroundImageFix" result="shape"/>
<feColorMatrix in="SourceAlpha" type="matrix" values="0 0 0 0 0 0 0 0 0 0 0 0 0 0 0 0 0 0 127 0" result="hardAlpha"/>
<feOffset dx="0.05" dy="-0.05"/>
<feGaussianBlur stdDeviation="0.05"/>
<feComposite in2="hardAlpha" operator="arithmetic" k2="-1" k3="1"/>
<feColorMatrix type="matrix" values="0 0 0 0 0.478431 0 0 0 0 0.364706 0 0 0 0 0.584314 0 0 0 1 0"/>
<feBlend mode="normal" in2="shape" result="effect1_innerShadow_22_10"/>
<feColorMatrix in="SourceAlpha" type="matrix" values="0 0 0 0 0 0 0 0 0 0 0 0 0 0 0 0 0 0 127 0" result="hardAlpha"/>
<feOffset dx="-0.05" dy="0.05"/>
<feGaussianBlur stdDeviation="0.05"/>
<feComposite in2="hardAlpha" operator="arithmetic" k2="-1" k3="1"/>
<feColorMatrix type="matrix" values="0 0 0 0 0.807843 0 0 0 0 0.764706 0 0 0 0 0.858824 0 0 0 1 0"/>
<feBlend mode="normal" in2="effect1_innerShadow_22_10" result="effect2_innerShadow_22_10"/>
</filter>
<filter id="filter5_ii_22_10" x="83.4099" y="74.9914" width="32.4785" height="32.6284" filterUnits="userSpaceOnUse" color-interpolation-filters="sRGB">
<feFlood flood-opacity="0" result="BackgroundImageFix"/>
<feBlend mode="normal" in="SourceGraphic" in2="BackgroundImageFix" result="shape"/>
<feColorMatrix in="SourceAlpha" type="matrix" values="0 0 0 0 0 0 0 0 0 0 0 0 0 0 0 0 0 0 127 0" result="hardAlpha"/>
<feOffset/>
<feGaussianBlur stdDeviation="0.5"/>
<feComposite in2="hardAlpha" operator="arithmetic" k2="-1" k3="1"/>
<feColorMatrix type="matrix" values="0 0 0 0 0.145098 0 0 0 0 0.0823529 0 0 0 0 0.215686 0 0 0 1 0"/>
<feBlend mode="normal" in2="shape" result="effect1_innerShadow_22_10"/>
<feColorMatrix in="SourceAlpha" type="matrix" values="0 0 0 0 0 0 0 0 0 0 0 0 0 0 0 0 0 0 127 0" result="hardAlpha"/>
<feOffset dy="0.15"/>
<feGaussianBlur stdDeviation="0.125"/>
<feComposite in2="hardAlpha" operator="arithmetic" k2="-1" k3="1"/>
<feColorMatrix type="matrix" values="0 0 0 0 0.207843 0 0 0 0 0.0313726 0 0 0 0 0.235294 0 0 0 1 0"/>
<feBlend mode="normal" in2="effect1_innerShadow_22_10" result="effect2_innerShadow_22_10"/>
</filter>
<filter id="filter6_ii_22_10" x="93.5965" y="85.1883" width="12.0863" height="12.0864" filterUnits="userSpaceOnUse" color-interpolation-filters="sRGB">
<feFlood flood-opacity="0" result="BackgroundImageFix"/>
<feBlend mode="normal" in="SourceGraphic" in2="BackgroundImageFix" result="shape"/>
<feColorMatrix in="SourceAlpha" type="matrix" values="0 0 0 0 0 0 0 0 0 0 0 0 0 0 0 0 0 0 127 0" result="hardAlpha"/>
<feOffset dx="0.05" dy="-0.05"/>
<feGaussianBlur stdDeviation="0.05"/>
<feComposite in2="hardAlpha" operator="arithmetic" k2="-1" k3="1"/>
<feColorMatrix type="matrix" values="0 0 0 0 0.478431 0 0 0 0 0.364706 0 0 0 0 0.584314 0 0 0 1 0"/>
<feBlend mode="normal" in2="shape" result="effect1_innerShadow_22_10"/>
<feColorMatrix in="SourceAlpha" type="matrix" values="0 0 0 0 0 0 0 0 0 0 0 0 0 0 0 0 0 0 127 0" result="hardAlpha"/>
<feOffset dx="-0.05" dy="0.05"/>
<feGaussianBlur stdDeviation="0.05"/>
<feComposite in2="hardAlpha" operator="arithmetic" k2="-1" k3="1"/>
<feColorMatrix type="matrix" values="0 0 0 0 0.807843 0 0 0 0 0.764706 0 0 0 0 0.858824 0 0 0 1 0"/>
<feBlend mode="normal" in2="effect1_innerShadow_22_10" result="effect2_innerShadow_22_10"/>
</filter>
<filter id="filter7_f_22_10" x="86.5251" y="77.2463" width="24.7791" height="24.7789" filterUnits="userSpaceOnUse" color-interpolation-filters="sRGB">
<feFlood flood-opacity="0" result="BackgroundImageFix"/>
<feBlend mode="normal" in="SourceGraphic" in2="BackgroundImageFix" result="shape"/>
<feGaussianBlur stdDeviation="0.375" result="effect1_foregroundBlur_22_10"/>
</filter>
<filter id="filter8_f_22_10" x="16.9502" y="77.2463" width="24.7791" height="24.7789" filterUnits="userSpaceOnUse" color-interpolation-filters="sRGB">
<feFlood flood-opacity="0" result="BackgroundImageFix"/>
<feBlend mode="normal" in="SourceGraphic" in2="BackgroundImageFix" result="shape"/>
<feGaussianBlur stdDeviation="0.375" result="effect1_foregroundBlur_22_10"/>
</filter>
<linearGradient id="paint0_linear_22_10" x1="128.366" y1="42.3128" x2="74.8575" y2="42.3128" gradientUnits="userSpaceOnUse">
<stop stop-color="#C9BDD1"/>
<stop offset="1" stop-color="#EBDDF3"/>
</linearGradient>
<linearGradient id="paint1_linear_22_10" x1="100.108" y1="22.6255" x2="100.108" y2="26.2139" gradientUnits="userSpaceOnUse">
<stop stop-color="#C8C6C5"/>
<stop offset="0.495" stop-color="#C8C6C5" stop-opacity="0"/>
</linearGradient>
<linearGradient id="paint2_linear_22_10" x1="74.8576" y1="41.0823" x2="75.8213" y2="41.0823" gradientUnits="userSpaceOnUse">
<stop stop-color="#604114"/>
<stop offset="1" stop-color="#604114" stop-opacity="0"/>
</linearGradient>
<linearGradient id="paint3_linear_22_10" x1="71.2973" y1="65.4855" x2="0.00106017" y2="25.994" gradientUnits="userSpaceOnUse">
<stop stop-color="#F1C147"/>
<stop offset="1" stop-color="#E0B343"/>
</linearGradient>
<linearGradient id="paint4_linear_22_10" x1="37.4294" y1="0" x2="37.4294" y2="9.77815" gradientUnits="userSpaceOnUse">
<stop stop-color="#EAC439"/>
<stop offset="1" stop-color="#EAC439" stop-opacity="0"/>
</linearGradient>
<linearGradient id="paint5_linear_22_10" x1="0.001091" y1="38.0131" x2="1.35319" y2="38.0131" gradientUnits="userSpaceOnUse">
<stop stop-color="#DDBE7A"/>
<stop offset="1" stop-color="#DDBE7A" stop-opacity="0"/>
</linearGradient>
<linearGradient id="paint6_linear_22_10" x1="96.2014" y1="32.1651" x2="124.567" y2="56.1426" gradientUnits="userSpaceOnUse">
<stop stop-color="#35A5E2"/>
<stop offset="1" stop-color="#4AD3F9"/>
</linearGradient>
<linearGradient id="paint7_linear_22_10" x1="111.561" y1="28.1182" x2="111.561" y2="46.037" gradientUnits="userSpaceOnUse">
<stop stop-color="#1D95DD"/>
<stop offset="1" stop-color="#1D95DD" stop-opacity="0"/>
</linearGradient>
<linearGradient id="paint8_linear_22_10" x1="91.6352" y1="44.5539" x2="98.3208" y2="44.5539" gradientUnits="userSpaceOnUse">
<stop stop-color="#48B8E6"/>
<stop offset="1" stop-color="#48B8E6" stop-opacity="0"/>
</linearGradient>
<linearGradient id="paint9_linear_22_10" x1="52.2603" y1="60.798" x2="52.0498" y2="89.1827" gradientUnits="userSpaceOnUse">
<stop stop-color="#FD6E33"/>
<stop offset="1" stop-color="#EB3C3D"/>
</linearGradient>
<linearGradient id="paint10_linear_22_10" x1="74.8577" y1="72.9154" x2="69.7066" y2="72.9154" gradientUnits="userSpaceOnUse">
<stop offset="0.513" stop-color="#EA3A0C"/>
<stop offset="1" stop-color="#EA3A0C" stop-opacity="0"/>
</linearGradient>
<linearGradient id="paint11_linear_22_10" x1="37.4294" y1="97.6415" x2="37.4294" y2="85.6504" gradientUnits="userSpaceOnUse">
<stop stop-color="#BC2447"/>
<stop offset="1" stop-color="#BC2447" stop-opacity="0"/>
</linearGradient>
<linearGradient id="paint12_linear_22_10" x1="9.36636" y1="72.8071" x2="1.89941" y2="81.4344" gradientUnits="userSpaceOnUse">
<stop stop-color="#BD0663"/>
<stop offset="1" stop-color="#C8166A"/>
</linearGradient>
<linearGradient id="paint13_linear_22_10" x1="102.929" y1="58.7721" x2="102.929" y2="93.6178" gradientUnits="userSpaceOnUse">
<stop stop-color="#FF7233"/>
<stop offset="1" stop-color="#EE3124"/>
</linearGradient>
<linearGradient id="paint14_linear_22_10" x1="74.8576" y1="77.926" x2="83.4848" y2="77.926" gradientUnits="userSpaceOnUse">
<stop stop-color="#FF7B3D"/>
<stop offset="1" stop-color="#FF7B3D" stop-opacity="0"/>
</linearGradient>
<linearGradient id="paint15_linear_22_10" x1="102.929" y1="93.6178" x2="102.929" y2="85.6737" gradientUnits="userSpaceOnUse">
<stop stop-color="#BC2447"/>
<stop offset="1" stop-color="#BC2447" stop-opacity="0"/>
</linearGradient>
<linearGradient id="paint16_linear_22_10" x1="74.8576" y1="73.2989" x2="75.8213" y2="73.2989" gradientUnits="userSpaceOnUse">
<stop stop-color="#BC2303"/>
<stop offset="1" stop-color="#BC2303" stop-opacity="0"/>
</linearGradient>
<linearGradient id="paint17_linear_22_10" x1="99.6494" y1="72.9241" x2="99.6494" y2="93.6173" gradientUnits="userSpaceOnUse">
<stop stop-color="#99160C"/>
<stop offset="1" stop-color="#AC0819"/>
</linearGradient>
<linearGradient id="paint18_linear_22_10" x1="30.4109" y1="72.9241" x2="30.4109" y2="93.6173" gradientUnits="userSpaceOnUse">
<stop stop-color="#99160C"/>
<stop offset="1" stop-color="#AC0819"/>
</linearGradient>
<linearGradient id="paint19_linear_22_10" x1="37.7623" y1="87.1462" x2="13.3731" y2="87.1462" gradientUnits="userSpaceOnUse">
<stop offset="0.239" stop-color="#34214F"/>
<stop offset="1" stop-color="#241337"/>
</linearGradient>
<radialGradient id="paint20_radial_22_10" cx="0" cy="0" r="1" gradientUnits="userSpaceOnUse" gradientTransform="translate(30.2767 89.7756) rotate(-114.463) scale(8.86081 9.25478)">
<stop offset="0.523" stop-color="#2D114D"/>
<stop offset="1" stop-color="#2B1249" stop-opacity="0"/>
</radialGradient>
<linearGradient id="paint21_linear_22_10" x1="107.14" y1="87.1462" x2="82.7457" y2="87.1462" gradientUnits="userSpaceOnUse">
<stop offset="0.239" stop-color="#34214F"/>
<stop offset="1" stop-color="#241337"/>
</linearGradient>
<radialGradient id="paint22_radial_22_10" cx="0" cy="0" r="1" gradientUnits="userSpaceOnUse" gradientTransform="translate(99.6492 89.7756) rotate(-114.463) scale(8.86081 9.25478)">
<stop offset="0.523" stop-color="#2D114D"/>
<stop offset="1" stop-color="#2B1249" stop-opacity="0"/>
</radialGradient>
<linearGradient id="paint23_linear_22_10" x1="92.8092" y1="80.7371" x2="106.428" y2="99.5495" gradientUnits="userSpaceOnUse">
<stop offset="0.083" stop-color="#615B6B"/>
<stop offset="0.391" stop-color="#615B6B" stop-opacity="0"/>
<stop offset="0.692" stop-color="#615B6B" stop-opacity="0"/>
<stop offset="0.935" stop-color="#615B6B"/>
</linearGradient>
<linearGradient id="paint24_linear_22_10" x1="23.2296" y1="80.7371" x2="36.8535" y2="99.5495" gradientUnits="userSpaceOnUse">
<stop offset="0.083" stop-color="#615B6B"/>
<stop offset="0.391" stop-color="#615B6B" stop-opacity="0"/>
<stop offset="0.692" stop-color="#615B6B" stop-opacity="0"/>
<stop offset="0.935" stop-color="#615B6B"/>
</linearGradient>
</defs>
</svg>
